<svg width="25" height="25" viewBox="0 0 25 25" fill="none" xmlns="http://www.w3.org/2000/svg">
<path d="M24.1202 23.2405H1.75953V0.879765C1.75953 0.403226 1.3563 0 0.879765 0C0.403226 0 0 0.403226 0 0.879765V24.1202C0 24.5968 0.403226 25 0.879765 25H24.1202C24.5968 25 25 24.5968 25 24.1202C25 23.6437 24.5968 23.2405 24.1202 23.2405Z" fill="black"/>
<path d="M10.3008 19.8314V7.14809C10.3008 6.67155 9.89757 6.26833 9.42103 6.26833C8.94449 6.26833 8.54126 6.67155 8.54126 7.14809V19.868C8.54126 20.3446 8.94449 20.7478 9.42103 20.7478C9.89757 20.7478 10.3008 20.3446 10.3008 19.8314ZM6.04859 19.8314V7.14809C6.04859 6.67155 5.64537 6.26833 5.16883 6.26833C4.69229 6.26833 4.28906 6.67155 4.28906 7.14809V19.868C4.28906 20.3446 4.69229 20.7478 5.16883 20.7478C5.64537 20.7111 6.04859 20.3446 6.04859 19.8314ZM18.8419 19.8314V7.14809C18.8419 6.67155 18.4386 6.26833 17.9621 6.26833C17.4855 6.26833 17.0823 6.67155 17.0823 7.14809V19.868C17.0823 20.3446 17.4855 20.7478 17.9621 20.7478C18.4386 20.7111 18.8419 20.3446 18.8419 19.8314ZM23.0941 19.8314V13.4897C23.0941 13.0132 22.6908 12.61 22.2143 12.61C21.7377 12.61 21.3345 13.0132 21.3345 13.4897V19.8314C21.3345 20.3079 21.7377 20.7111 22.2143 20.7111C22.6908 20.7111 23.0941 20.3446 23.0941 19.8314ZM14.553 19.8314V13.4897C14.553 13.0132 14.1498 12.61 13.6732 12.61C13.1967 12.61 12.7935 13.0132 12.7935 13.4897V19.8314C12.7935 20.3079 13.1967 20.7111 13.6732 20.7111C14.1498 20.7111 14.553 20.3446 14.553 19.8314Z" fill="black"/>
</svg>
