<svg width="205" height="69" viewBox="0 0 205 69" fill="none" xmlns="http://www.w3.org/2000/svg">
<g clip-path="url(#clip0_178_396)">
<path d="M6.00613 10.5307C13.5132 3.02365 25.6839 3.02365 33.191 10.5307L34.2191 11.5588C39.4045 28.7675 38.9262 46.975 34.2191 65.9285L20.627 52.3357L6.00689 37.7156C-1.50022 30.2085 -1.50022 18.0379 6.00613 10.5307Z" fill="#D6493E"/>
<path d="M62.4322 10.5309C54.9251 3.0238 42.7544 3.0238 35.2473 10.5309L34.2192 11.559V65.9287L47.8113 52.3366L62.4314 37.7165C69.9385 30.2087 69.9385 18.038 62.4322 10.5309Z" fill="#D75A4A"/>
</g>
<path d="M88.9308 33.2003C87.08 33.2003 85.3915 32.771 83.8651 31.9124C82.3386 31.0348 81.1271 29.8232 80.2303 28.2777C79.3526 26.7131 78.9138 24.9577 78.9138 23.0116C78.9138 21.0654 79.3526 19.3196 80.2303 17.7741C81.1271 16.2095 82.3386 14.9979 83.8651 14.1393C85.3915 13.2616 87.08 12.8228 88.9308 12.8228C90.8007 12.8228 92.4988 13.2616 94.0252 14.1393C95.5516 14.9979 96.7537 16.2 97.6313 17.7455C98.509 19.291 98.9479 21.0463 98.9479 23.0116C98.9479 24.9768 98.509 26.7322 97.6313 28.2777C96.7537 29.8232 95.5516 31.0348 94.0252 31.9124C92.4988 32.771 90.8007 33.2003 88.9308 33.2003ZM88.9308 30.9394C90.3237 30.9394 91.5734 30.615 92.6801 29.9663C93.8058 29.3175 94.6835 28.3922 95.3131 27.1901C95.9618 25.9881 96.2862 24.5952 96.2862 23.0116C96.2862 21.4088 95.9618 20.016 95.3131 18.833C94.6835 17.631 93.8153 16.7056 92.7087 16.0569C91.602 15.4082 90.3427 15.0838 88.9308 15.0838C87.5189 15.0838 86.2596 15.4082 85.153 16.0569C84.0463 16.7056 83.1686 17.631 82.5199 18.833C81.8903 20.016 81.5754 21.4088 81.5754 23.0116C81.5754 24.5952 81.8903 25.9881 82.5199 27.1901C83.1686 28.3922 84.0463 29.3175 85.153 29.9663C86.2787 30.615 87.538 30.9394 88.9308 30.9394ZM118.07 33H115.465L104.991 17.1158V33H102.386V13.0231H104.991L115.465 28.8787V13.0231H118.07V33ZM125.114 15.1697V21.8381H132.384V23.9847H125.114V30.8535H133.242V33H122.51V13.0231H133.242V15.1697H125.114Z" fill="black"/>
<path d="M143.84 23.0116C143.84 21.0654 144.279 19.3196 145.157 17.7741C146.034 16.2095 147.227 14.9884 148.734 14.1107C150.261 13.233 151.949 12.7942 153.8 12.7942C155.975 12.7942 157.874 13.3189 159.495 14.3683C161.117 15.4177 162.3 16.9059 163.044 18.833H159.925C159.371 17.631 158.57 16.7056 157.521 16.0569C156.49 15.4082 155.25 15.0838 153.8 15.0838C152.407 15.0838 151.157 15.4082 150.051 16.0569C148.944 16.7056 148.076 17.631 147.446 18.833C146.817 20.016 146.502 21.4088 146.502 23.0116C146.502 24.5952 146.817 25.9881 147.446 27.1901C148.076 28.3731 148.944 29.2889 150.051 29.9376C151.157 30.5864 152.407 30.9107 153.8 30.9107C155.25 30.9107 156.49 30.5959 157.521 29.9663C158.57 29.3175 159.371 28.3922 159.925 27.1901H163.044C162.3 29.0981 161.117 30.5768 159.495 31.6262C157.874 32.6566 155.975 33.1717 153.8 33.1717C151.949 33.1717 150.261 32.7424 148.734 31.8838C147.227 31.0061 146.034 29.7945 145.157 28.2491C144.279 26.7036 143.84 24.9577 143.84 23.0116ZM178.713 28.5639H170.012L168.409 33H165.662L172.874 13.1662H175.879L183.063 33H180.315L178.713 28.5639ZM177.968 26.446L174.362 16.3717L170.756 26.446H177.968ZM201.89 33H199.286L188.811 17.1158V33H186.206V13.0231H188.811L199.286 28.8787V13.0231H201.89V33Z" fill="#D6493E"/>
<path d="M78.5592 50.5055C78.5592 49.12 78.8716 47.8772 79.4964 46.7771C80.1212 45.6633 80.9701 44.794 82.0431 44.1692C83.1297 43.5444 84.3317 43.232 85.6492 43.232C87.1977 43.232 88.5491 43.6055 89.7036 44.3526C90.8581 45.0996 91.7003 46.1591 92.23 47.5309H90.0092C89.6153 46.6752 89.0449 46.0164 88.2978 45.5546C87.5644 45.0928 86.6815 44.8619 85.6492 44.8619C84.6577 44.8619 83.7681 45.0928 82.9803 45.5546C82.1925 46.0164 81.5745 46.6752 81.1263 47.5309C80.678 48.373 80.4539 49.3645 80.4539 50.5055C80.4539 51.6328 80.678 52.6243 81.1263 53.48C81.5745 54.3221 82.1925 54.9741 82.9803 55.4359C83.7681 55.8977 84.6577 56.1286 85.6492 56.1286C86.6815 56.1286 87.5644 55.9045 88.2978 55.4563C89.0449 54.9945 89.6153 54.3357 90.0092 53.48H92.23C91.7003 54.8383 90.8581 55.8909 89.7036 56.638C88.5491 57.3714 87.1977 57.7381 85.6492 57.7381C84.3317 57.7381 83.1297 57.4325 82.0431 56.8213C80.9701 56.1965 80.1212 55.334 79.4964 54.2339C78.8716 53.1337 78.5592 51.8909 78.5592 50.5055ZM105.931 43.4154V57.6159H104.077V51.1778H96.8438V57.6159H94.9898V43.4154H96.8438V49.6498H104.077V43.4154H105.931ZM117.49 54.458H111.297L110.156 57.6159H108.2L113.334 43.4969H115.473L120.587 57.6159H118.631L117.49 54.458ZM116.961 52.9503L114.393 45.7787L111.826 52.9503H116.961ZM133.99 57.6159H132.135L124.679 46.3085V57.6159H122.825V43.395H124.679L132.135 54.6821V43.395H133.99V57.6159ZM147.907 47.5309C147.513 46.7024 146.943 46.064 146.196 45.6158C145.449 45.154 144.58 44.923 143.588 44.923C142.597 44.923 141.7 45.154 140.899 45.6158C140.111 46.064 139.486 46.7159 139.024 47.5716C138.576 48.4138 138.352 49.3917 138.352 50.5055C138.352 51.6192 138.576 52.5972 139.024 53.4393C139.486 54.2814 140.111 54.9334 140.899 55.3952C141.7 55.8434 142.597 56.0675 143.588 56.0675C144.974 56.0675 146.114 55.6532 147.011 54.8247C147.907 53.9962 148.43 52.8756 148.58 51.463H142.916V49.9554H150.556V51.3815C150.447 52.5496 150.081 53.6226 149.456 54.6006C148.831 55.5649 148.009 56.3324 146.991 56.9028C145.972 57.4597 144.838 57.7381 143.588 57.7381C142.271 57.7381 141.069 57.4325 139.982 56.8213C138.895 56.1965 138.033 55.334 137.394 54.2339C136.77 53.1337 136.457 51.8909 136.457 50.5055C136.457 49.12 136.77 47.8772 137.394 46.7771C138.033 45.6633 138.895 44.8008 139.982 44.1896C141.069 43.5648 142.271 43.2524 143.588 43.2524C145.096 43.2524 146.427 43.6259 147.581 44.373C148.749 45.12 149.598 46.1726 150.128 47.5309H147.907ZM154.861 44.923V49.6701H160.036V51.1982H154.861V56.0879H160.647V57.6159H153.007V43.395H160.647V44.923H154.861Z" fill="#D6493E"/>
<path d="M171.324 57.7585C170.006 57.7585 168.804 57.4529 167.718 56.8417C166.631 56.2169 165.769 55.3544 165.13 54.2542C164.505 53.1405 164.193 51.8909 164.193 50.5055C164.193 49.12 164.505 47.8772 165.13 46.7771C165.769 45.6633 166.631 44.8008 167.718 44.1896C168.804 43.5648 170.006 43.2524 171.324 43.2524C172.655 43.2524 173.864 43.5648 174.95 44.1896C176.037 44.8008 176.893 45.6565 177.517 46.7567C178.142 47.8569 178.455 49.1065 178.455 50.5055C178.455 51.9045 178.142 53.1541 177.517 54.2542C176.893 55.3544 176.037 56.2169 174.95 56.8417C173.864 57.4529 172.655 57.7585 171.324 57.7585ZM171.324 56.149C172.315 56.149 173.205 55.9181 173.993 55.4563C174.794 54.9945 175.419 54.3357 175.867 53.48C176.329 52.6243 176.56 51.6328 176.56 50.5055C176.56 49.3645 176.329 48.373 175.867 47.5309C175.419 46.6752 174.801 46.0164 174.013 45.5546C173.225 45.0928 172.329 44.8619 171.324 44.8619C170.319 44.8619 169.422 45.0928 168.634 45.5546C167.847 46.0164 167.222 46.6752 166.76 47.5309C166.312 48.373 166.088 49.3645 166.088 50.5055C166.088 51.6328 166.312 52.6243 166.76 53.48C167.222 54.3357 167.847 54.9945 168.634 55.4563C169.436 55.9181 170.332 56.149 171.324 56.149ZM192.067 57.6159H190.213L182.756 46.3085V57.6159H180.902V43.395H182.756L190.213 54.6821V43.395H192.067V57.6159ZM197.081 44.923V49.6701H202.256V51.1982H197.081V56.0879H202.868V57.6159H195.227V43.395H202.868V44.923H197.081Z" fill="black"/>
<defs>
<clipPath id="clip0_178_396">
<rect width="68.5154" height="68.5154" fill="white"/>
</clipPath>
</defs>
</svg>
