<svg width="25" height="25" viewBox="0 0 25 25" fill="none" xmlns="http://www.w3.org/2000/svg">
<path fill-rule="evenodd" clip-rule="evenodd" d="M1.30212 9.37499C1.30212 8.94352 1.65191 8.59374 2.08337 8.59374H22.9167C23.3482 8.59374 23.698 8.94352 23.698 9.37499C23.698 9.80646 23.3482 10.1562 22.9167 10.1562H2.08337C1.65191 10.1562 1.30212 9.80646 1.30212 9.37499ZM6.77087 4.94791C6.33941 4.94791 5.98962 5.29769 5.98962 5.72916C5.98962 6.16063 6.33941 6.51041 6.77087 6.51041C7.20234 6.51041 7.55212 6.16063 7.55212 5.72916C7.55212 5.29769 7.20234 4.94791 6.77087 4.94791ZM4.42712 5.72916C4.42712 4.43474 5.47646 3.38541 6.77087 3.38541C8.06529 3.38541 9.11462 4.43474 9.11462 5.72916C9.11462 7.02357 8.06529 8.07291 6.77087 8.07291C5.47646 8.07291 4.42712 7.02357 4.42712 5.72916ZM10.6771 5.72916C10.6771 5.29769 11.0269 4.94791 11.4584 4.94791H19.7917C20.2232 4.94791 20.573 5.29769 20.573 5.72916C20.573 6.16063 20.2232 6.51041 19.7917 6.51041H11.4584C11.0269 6.51041 10.6771 6.16063 10.6771 5.72916Z" fill="black"/>
<path fill-rule="evenodd" clip-rule="evenodd" d="M1.30212 5.20834C1.30212 3.05098 3.05101 1.30209 5.20837 1.30209H19.7917C21.9491 1.30209 23.698 3.05098 23.698 5.20834V19.7917C23.698 21.9491 21.9491 23.6979 19.7917 23.6979H11.4584C11.0269 23.6979 10.6771 23.3481 10.6771 22.9167C10.6771 22.4852 11.0269 22.1354 11.4584 22.1354H19.7917C21.0861 22.1354 22.1355 21.0861 22.1355 19.7917V5.20834C22.1355 3.91393 21.0861 2.86459 19.7917 2.86459H5.20837C3.91396 2.86459 2.86462 3.91393 2.86462 5.20834V19.7917C2.86462 21.0861 3.91396 22.1354 5.20837 22.1354H7.29171C7.72318 22.1354 8.07296 22.4852 8.07296 22.9167C8.07296 23.3481 7.72318 23.6979 7.29171 23.6979H5.20837C3.05101 23.6979 1.30212 21.9491 1.30212 19.7917V5.20834Z" fill="black"/>
</svg>
