<svg width="248" height="195" viewBox="0 0 248 195" fill="none" xmlns="http://www.w3.org/2000/svg">
<g clip-path="url(#clip0_1_2618)">
<path d="M224.921 178.074C220.184 183.145 214.756 187.524 208.798 191.081C208.661 191.165 208.522 191.244 208.383 191.326L198.737 182.788C198.838 182.694 198.95 182.588 199.071 182.472C206.259 175.647 241.94 127.93 244.317 116.31C244.153 117.278 246.463 155.242 224.921 178.074Z" fill="#9AE990"/>
<path d="M210.66 192.728C210.477 192.772 210.292 192.813 210.105 192.85L202.869 186.445C203.01 186.395 203.175 186.337 203.364 186.272C206.469 185.172 215.717 181.853 224.92 178.073C234.809 174.009 244.651 169.418 246.767 166.477C246.313 167.16 232.327 187.883 210.66 192.728Z" fill="#9AE990"/>
<path d="M224.787 51.78H223.757V23.5478C223.757 21.402 223.334 19.2772 222.513 17.2947C221.692 15.3123 220.488 13.511 218.971 11.9937C217.453 10.4763 215.652 9.27274 213.67 8.45158C211.687 7.63041 209.562 7.20776 207.417 7.20776H147.603C145.457 7.20776 143.332 7.6304 141.35 8.45156C139.367 9.27272 137.566 10.4763 136.049 11.9936C134.531 13.5109 133.328 15.3122 132.507 17.2947C131.685 19.2772 131.263 21.402 131.263 23.5478V178.432C131.263 180.578 131.685 182.702 132.506 184.685C133.328 186.667 134.531 188.469 136.049 189.986C137.566 191.503 139.367 192.707 141.35 193.528C143.332 194.349 145.457 194.772 147.603 194.772H207.416C209.562 194.772 211.687 194.349 213.67 193.528C215.652 192.707 217.453 191.503 218.971 189.986C220.488 188.469 221.692 186.667 222.513 184.685C223.334 182.703 223.757 180.578 223.757 178.432V71.8762H224.787V51.78Z" fill="#3F3D56"/>
<path d="M220.278 23.6601V178.319C220.278 179.921 219.963 181.508 219.349 182.989C218.736 184.469 217.837 185.814 216.703 186.947C215.57 188.08 214.225 188.979 212.744 189.591C211.263 190.204 209.676 190.519 208.074 190.519H147.972C146.37 190.519 144.783 190.203 143.303 189.59C141.823 188.977 140.478 188.079 139.345 186.946C138.212 185.813 137.313 184.468 136.7 182.988C136.087 181.507 135.772 179.921 135.772 178.319V23.6601C135.772 22.058 136.087 20.4715 136.7 18.9912C137.313 17.511 138.212 16.166 139.345 15.0331C140.478 13.9002 141.823 13.0016 143.303 12.3885C144.783 11.7754 146.37 11.46 147.972 11.4601H155.266C154.908 12.3404 154.771 13.2952 154.869 14.2405C154.967 15.1859 155.295 16.0927 155.825 16.8814C156.355 17.67 157.071 18.3163 157.91 18.7633C158.749 19.2104 159.684 19.4445 160.635 19.4452H194.9C195.851 19.4461 196.788 19.2129 197.627 18.7663C198.467 18.3197 199.183 17.6733 199.714 16.8842C200.245 16.0951 200.573 15.1875 200.67 14.2416C200.766 13.2956 200.629 12.3404 200.269 11.4601H208.074C209.676 11.4595 211.263 11.7746 212.744 12.3875C214.225 13.0003 215.57 13.8989 216.703 15.0318C217.837 16.1648 218.736 17.5099 219.349 18.9904C219.963 20.4708 220.278 22.0576 220.278 23.6601Z" fill="white"/>
<path d="M201.583 119.004H148.755C147.83 119.003 146.943 118.635 146.289 117.981C145.634 117.326 145.266 116.439 145.265 115.514V113.777C145.266 112.851 145.634 111.964 146.289 111.31C146.943 110.656 147.83 110.288 148.755 110.287H201.583C202.508 110.288 203.395 110.656 204.05 111.31C204.704 111.964 205.072 112.851 205.073 113.777V115.514C205.072 116.439 204.704 117.326 204.05 117.981C203.395 118.635 202.508 119.003 201.583 119.004Z" fill="#F0F0F0"/>
<path d="M204.544 115.112H151.674C150.701 115.111 149.769 114.523 149.082 113.477C148.394 112.432 148.007 111.014 148.006 109.536V106.892C148.007 105.413 148.394 103.996 149.082 102.95C149.769 101.905 150.701 101.317 151.674 101.315H204.544C205.517 101.317 206.449 101.905 207.137 102.95C207.824 103.996 208.211 105.413 208.212 106.892V109.536C208.211 111.014 207.824 112.432 207.137 113.477C206.449 114.523 205.517 115.111 204.544 115.112ZM151.674 102.377C150.886 102.379 150.132 102.855 149.575 103.701C149.019 104.548 148.706 105.695 148.705 106.892V109.536C148.706 110.733 149.019 111.88 149.575 112.726C150.132 113.573 150.886 114.049 151.674 114.05H204.544C205.332 114.049 206.086 113.573 206.643 112.726C207.199 111.88 207.513 110.733 207.513 109.536V106.892C207.513 105.695 207.199 104.548 206.643 103.701C206.086 102.855 205.332 102.379 204.544 102.377H151.674Z" fill="#3F3D56"/>
<path d="M154.796 108.484C154.796 107.525 154.952 106.778 155.264 106.243C155.576 105.702 156.123 105.432 156.903 105.432C157.678 105.432 158.222 105.702 158.534 106.243C158.846 106.778 159.002 107.525 159.002 108.484C159.002 109.459 158.846 110.218 158.534 110.758C158.222 111.299 157.678 111.569 156.903 111.569C156.123 111.569 155.576 111.299 155.264 110.758C154.952 110.218 154.796 109.459 154.796 108.484ZM158.25 108.484C158.25 107.999 158.216 107.589 158.149 107.255C158.088 106.915 157.957 106.641 157.756 106.435C157.561 106.229 157.277 106.126 156.903 106.126C156.524 106.126 156.234 106.229 156.034 106.435C155.838 106.641 155.707 106.915 155.641 107.255C155.579 107.589 155.549 107.999 155.549 108.484C155.549 108.986 155.579 109.407 155.641 109.747C155.707 110.087 155.838 110.36 156.034 110.566C156.234 110.772 156.524 110.875 156.903 110.875C157.277 110.875 157.561 110.772 157.756 110.566C157.957 110.36 158.088 110.087 158.149 109.747C158.216 109.407 158.25 108.986 158.25 108.484ZM159.846 106.218V105.524H161.418V111.569H160.649V106.218H159.846ZM162.633 110.959C163.341 110.39 163.896 109.925 164.297 109.563C164.699 109.195 165.036 108.813 165.309 108.417C165.588 108.016 165.727 107.623 165.727 107.238C165.727 106.876 165.638 106.591 165.46 106.385C165.287 106.173 165.005 106.067 164.615 106.067C164.236 106.067 163.94 106.187 163.729 106.427C163.522 106.661 163.411 106.976 163.394 107.372H162.658C162.681 106.747 162.87 106.265 163.227 105.925C163.584 105.585 164.044 105.415 164.607 105.415C165.181 105.415 165.635 105.574 165.97 105.892C166.31 106.209 166.48 106.647 166.48 107.205C166.48 107.667 166.34 108.119 166.062 108.559C165.788 108.994 165.476 109.379 165.125 109.713C164.774 110.042 164.325 110.427 163.779 110.867H166.655V111.503H162.633V110.959ZM167.518 107.046C167.557 106.533 167.755 106.131 168.112 105.842C168.469 105.552 168.931 105.407 169.5 105.407C169.879 105.407 170.205 105.476 170.478 105.616C170.757 105.75 170.966 105.934 171.105 106.168C171.25 106.402 171.323 106.667 171.323 106.962C171.323 107.308 171.223 107.606 171.022 107.857C170.827 108.108 170.57 108.269 170.253 108.342V108.384C170.615 108.473 170.902 108.648 171.114 108.91C171.326 109.172 171.432 109.515 171.432 109.939C171.432 110.257 171.359 110.544 171.214 110.8C171.069 111.051 170.852 111.249 170.562 111.394C170.272 111.539 169.924 111.611 169.517 111.611C168.926 111.611 168.441 111.458 168.062 111.151C167.683 110.839 167.471 110.399 167.426 109.83H168.162C168.201 110.165 168.338 110.438 168.572 110.65C168.806 110.861 169.118 110.967 169.508 110.967C169.899 110.967 170.194 110.867 170.395 110.666C170.601 110.46 170.704 110.195 170.704 109.872C170.704 109.454 170.565 109.153 170.286 108.969C170.007 108.785 169.586 108.693 169.023 108.693H168.831V108.057H169.032C169.545 108.052 169.932 107.968 170.194 107.807C170.456 107.639 170.587 107.383 170.587 107.037C170.587 106.742 170.489 106.505 170.294 106.327C170.105 106.148 169.832 106.059 169.475 106.059C169.129 106.059 168.851 106.148 168.639 106.327C168.427 106.505 168.301 106.745 168.262 107.046H167.518ZM172.275 110.223V109.646L175.21 105.582H176.121V109.563H176.958V110.223H176.121V111.569H175.369V110.223H172.275ZM175.402 106.377L173.153 109.563H175.402V106.377ZM181.573 106.184H178.638V108.091C178.766 107.913 178.955 107.768 179.206 107.656C179.457 107.539 179.727 107.48 180.017 107.48C180.48 107.48 180.856 107.578 181.146 107.773C181.436 107.963 181.642 108.211 181.765 108.517C181.893 108.818 181.957 109.139 181.957 109.479C181.957 109.88 181.882 110.24 181.732 110.558C181.581 110.875 181.35 111.126 181.038 111.31C180.731 111.494 180.349 111.586 179.892 111.586C179.307 111.586 178.833 111.436 178.47 111.135C178.108 110.834 177.888 110.432 177.81 109.931H178.554C178.626 110.248 178.78 110.496 179.014 110.675C179.248 110.853 179.544 110.942 179.9 110.942C180.341 110.942 180.672 110.811 180.895 110.549C181.118 110.282 181.23 109.931 181.23 109.496C181.23 109.061 181.118 108.726 180.895 108.492C180.672 108.253 180.343 108.133 179.909 108.133C179.613 108.133 179.354 108.205 179.131 108.35C178.914 108.489 178.755 108.682 178.654 108.927H177.935V105.515H181.573V106.184ZM186.338 106.962C186.216 106.343 185.834 106.034 185.193 106.034C184.697 106.034 184.326 106.226 184.081 106.611C183.835 106.99 183.716 107.617 183.721 108.492C183.849 108.202 184.061 107.977 184.357 107.815C184.658 107.648 184.992 107.564 185.36 107.564C185.934 107.564 186.391 107.742 186.731 108.099C187.077 108.456 187.25 108.949 187.25 109.579C187.25 109.958 187.175 110.298 187.024 110.599C186.879 110.901 186.656 111.14 186.355 111.319C186.06 111.497 185.7 111.586 185.276 111.586C184.702 111.586 184.253 111.458 183.93 111.202C183.607 110.945 183.381 110.591 183.253 110.14C183.125 109.688 183.061 109.131 183.061 108.467C183.061 106.421 183.774 105.398 185.201 105.398C185.747 105.398 186.177 105.546 186.489 105.842C186.801 106.137 186.985 106.51 187.041 106.962H186.338ZM185.201 108.208C184.961 108.208 184.736 108.258 184.524 108.358C184.312 108.453 184.139 108.601 184.005 108.802C183.877 108.997 183.813 109.236 183.813 109.521C183.813 109.944 183.936 110.29 184.181 110.558C184.426 110.82 184.777 110.951 185.235 110.951C185.625 110.951 185.934 110.831 186.163 110.591C186.397 110.346 186.514 110.017 186.514 109.604C186.514 109.17 186.402 108.83 186.18 108.584C185.957 108.333 185.63 108.208 185.201 108.208ZM191.997 106.117L189.673 111.569H188.904L191.262 106.193H188.034V105.541H191.997V106.117ZM193.945 108.425C193.633 108.303 193.393 108.124 193.226 107.89C193.059 107.656 192.975 107.372 192.975 107.037C192.975 106.736 193.05 106.466 193.201 106.226C193.351 105.981 193.574 105.789 193.87 105.649C194.171 105.504 194.533 105.432 194.957 105.432C195.38 105.432 195.74 105.504 196.035 105.649C196.336 105.789 196.562 105.981 196.713 106.226C196.869 106.466 196.947 106.736 196.947 107.037C196.947 107.361 196.86 107.645 196.688 107.89C196.515 108.13 196.278 108.308 195.977 108.425C196.323 108.531 196.596 108.718 196.796 108.986C197.003 109.248 197.106 109.565 197.106 109.939C197.106 110.301 197.017 110.619 196.838 110.892C196.66 111.16 196.406 111.369 196.077 111.519C195.754 111.664 195.38 111.737 194.957 111.737C194.533 111.737 194.16 111.664 193.836 111.519C193.518 111.369 193.27 111.16 193.092 110.892C192.914 110.619 192.824 110.301 192.824 109.939C192.824 109.565 192.925 109.245 193.125 108.977C193.326 108.71 193.599 108.526 193.945 108.425ZM196.211 107.129C196.211 106.789 196.1 106.527 195.877 106.343C195.654 106.159 195.347 106.067 194.957 106.067C194.572 106.067 194.268 106.159 194.045 106.343C193.822 106.527 193.711 106.792 193.711 107.138C193.711 107.45 193.825 107.701 194.054 107.89C194.288 108.08 194.589 108.175 194.957 108.175C195.33 108.175 195.631 108.08 195.86 107.89C196.094 107.695 196.211 107.441 196.211 107.129ZM194.957 108.76C194.544 108.76 194.207 108.857 193.945 109.053C193.683 109.242 193.552 109.529 193.552 109.914C193.552 110.271 193.677 110.558 193.928 110.775C194.185 110.992 194.527 111.101 194.957 111.101C195.386 111.101 195.726 110.992 195.977 110.775C196.228 110.558 196.353 110.271 196.353 109.914C196.353 109.54 196.225 109.256 195.969 109.061C195.712 108.86 195.375 108.76 194.957 108.76ZM199.095 109.947C199.15 110.265 199.279 110.51 199.479 110.683C199.686 110.856 199.962 110.942 200.307 110.942C200.77 110.942 201.11 110.761 201.327 110.399C201.55 110.036 201.656 109.426 201.645 108.568C201.528 108.818 201.333 109.016 201.06 109.161C200.787 109.301 200.483 109.37 200.148 109.37C199.775 109.37 199.44 109.295 199.145 109.144C198.855 108.988 198.626 108.763 198.459 108.467C198.292 108.172 198.208 107.815 198.208 107.397C198.208 106.8 198.381 106.321 198.727 105.959C199.072 105.591 199.563 105.407 200.198 105.407C200.979 105.407 201.525 105.66 201.837 106.168C202.155 106.675 202.314 107.43 202.314 108.434C202.314 109.136 202.25 109.716 202.122 110.173C201.999 110.63 201.787 110.979 201.486 111.218C201.191 111.458 200.784 111.578 200.265 111.578C199.697 111.578 199.254 111.425 198.936 111.118C198.618 110.811 198.437 110.421 198.392 109.947H199.095ZM200.274 108.726C200.647 108.726 200.954 108.612 201.194 108.384C201.433 108.149 201.553 107.834 201.553 107.439C201.553 107.021 201.436 106.683 201.202 106.427C200.968 106.17 200.639 106.042 200.215 106.042C199.825 106.042 199.513 106.165 199.279 106.41C199.05 106.655 198.936 106.979 198.936 107.38C198.936 107.787 199.05 108.113 199.279 108.358C199.507 108.604 199.839 108.726 200.274 108.726Z" fill="black"/>
<path d="M220.278 23.6601V57.3005C214.933 58.7068 209.336 58.8682 203.919 57.7721C198.502 56.6761 193.408 54.352 189.029 50.9785C184.651 47.605 181.105 43.2721 178.664 38.3131C176.223 33.3541 174.952 27.9013 174.949 22.3741C174.949 21.3875 174.989 20.4112 175.068 19.4452H194.901C195.851 19.4461 196.788 19.2129 197.627 18.7663C198.467 18.3197 199.184 17.6733 199.714 16.8842C200.245 16.0951 200.573 15.1875 200.67 14.2416C200.767 13.2956 200.629 12.3404 200.27 11.4601H208.074C209.677 11.4595 211.263 11.7746 212.744 12.3875C214.225 13.0003 215.57 13.8989 216.704 15.0318C217.837 16.1648 218.736 17.5099 219.349 18.9904C219.963 20.4708 220.278 22.0576 220.278 23.6601Z" fill="#F0F0F0"/>
<path d="M166.14 188.418C166.14 189.127 166.114 189.827 166.056 190.519H147.972C146.37 190.519 144.783 190.203 143.303 189.59C141.823 188.977 140.478 188.079 139.345 186.946C138.212 185.813 137.313 184.468 136.7 182.988C136.087 181.507 135.772 179.921 135.772 178.319V161.776C139.563 161.283 143.415 161.604 147.072 162.716C150.729 163.829 154.107 165.709 156.981 168.23C159.854 170.751 162.157 173.855 163.737 177.336C165.316 180.817 166.135 184.595 166.14 188.418Z" fill="#FF2525"/>
<path d="M20.2846 159.391C20.7928 159.615 21.3688 159.628 21.8864 159.427C22.404 159.226 22.8209 158.829 23.0456 158.321L39.3369 121.398C39.7097 120.554 39.8237 119.617 39.6643 118.707C39.5048 117.798 39.0792 116.956 38.4413 116.288C37.8033 115.62 36.9816 115.156 36.0801 114.956C35.1787 114.755 34.2379 114.826 33.3768 115.16C32.3819 115.54 31.5494 116.253 31.0209 117.177C30.9369 117.323 30.8606 117.474 30.7925 117.628L14.5013 154.551C14.3902 154.802 14.3298 155.073 14.3235 155.348C14.3173 155.623 14.3652 155.897 14.4646 156.153C14.564 156.41 14.713 156.644 14.9029 156.843C15.0929 157.042 15.3202 157.201 15.5718 157.312L20.2846 159.391Z" fill="#DD765E"/>
<path d="M38.6681 136.557L22.554 132.976L26.5424 122.425C27.2218 119.846 28.8031 117.596 30.9993 116.083C33.1955 114.57 35.8612 113.894 38.5129 114.179L38.6681 114.196L38.6681 136.557Z" fill="#2F2E41"/>
<path d="M71.216 159.92C70.742 159.919 70.2785 159.781 69.8813 159.522C69.4842 159.263 69.1705 158.895 68.9782 158.462L52.687 121.539C52.1689 120.365 52.1207 119.036 52.5524 117.827C52.9841 116.617 53.8628 115.62 55.0078 115.039C56.1527 114.458 57.4768 114.337 58.7076 114.703C59.9385 115.068 60.9825 115.892 61.6248 117.003C61.7151 117.16 61.7969 117.322 61.87 117.488L78.1612 154.41C78.4228 155.003 78.4381 155.675 78.2039 156.279C77.9697 156.884 77.5051 157.37 76.9123 157.631L72.0397 159.781L72.0372 159.776C71.7738 159.871 71.496 159.919 71.216 159.92Z" fill="#DD765E"/>
<path d="M48.6809 147.241C48.1258 147.241 47.5935 147.462 47.2009 147.855C46.8083 148.247 46.5875 148.779 46.5869 149.335V192.267C46.5875 192.822 46.8083 193.355 47.2009 193.747C47.5935 194.14 48.1258 194.36 48.6809 194.361H53.8321C54.3873 194.36 54.9195 194.14 55.3121 193.747C55.7047 193.355 55.9255 192.822 55.9261 192.267V149.335C55.9255 148.779 55.7047 148.247 55.3121 147.855C54.9195 147.462 54.3873 147.241 53.8321 147.241H48.6809Z" fill="#DD765E"/>
<path d="M38.4927 147.241C37.9375 147.241 37.4053 147.462 37.0127 147.855C36.6201 148.247 36.3993 148.779 36.3987 149.335V192.267C36.3993 192.822 36.6201 193.355 37.0127 193.747C37.4053 194.14 37.9375 194.36 38.4927 194.361H43.6439C44.1991 194.36 44.7314 194.14 45.1239 193.747C45.5165 193.355 45.7373 192.822 45.7379 192.267V149.335C45.7373 148.779 45.5165 148.247 45.1239 147.855C44.7314 147.462 44.1991 147.241 43.6439 147.241H38.4927Z" fill="#DD765E"/>
<path d="M46.0084 102.261C55.8387 102.261 63.8076 94.2924 63.8076 84.4622C63.8076 74.6319 55.8387 66.663 46.0084 66.663C36.1782 66.663 28.2092 74.6319 28.2092 84.4622C28.2092 94.2924 36.1782 102.261 46.0084 102.261Z" fill="#DD765E"/>
<path d="M51.9318 91.934C53.0855 91.9019 54.5215 91.8619 55.6277 91.0538C55.9571 90.8033 56.2278 90.4838 56.4207 90.1177C56.6136 89.7516 56.7242 89.3477 56.7446 88.9344C56.7646 88.6406 56.7164 88.3462 56.6037 88.0742C56.4911 87.8022 56.3171 87.5599 56.0953 87.3662C55.5175 86.878 54.6738 86.7635 53.7646 87.0307L54.7066 80.1464L54.0151 80.0516L52.9076 88.145L53.4851 87.88C54.1546 87.5729 55.0736 87.4167 55.6447 87.8993C55.785 88.0255 55.8942 88.1823 55.964 88.3575C56.0338 88.5328 56.0622 88.7218 56.047 88.9098C56.0301 89.2175 55.9471 89.5178 55.8037 89.7905C55.6603 90.0632 55.4598 90.3018 55.216 90.4901C54.3551 91.1189 53.2105 91.2 51.9124 91.2363L51.9318 91.934Z" fill="#2F2E41"/>
<path d="M61.886 80.74H58.1267V81.438H61.886V80.74Z" fill="#2F2E41"/>
<path d="M50.0198 80.74H46.2605V81.438H50.0198V80.74Z" fill="#2F2E41"/>
<path d="M63.6451 160.136L57.2388 113.37C57.1701 112.868 56.9221 112.409 56.5406 112.076C56.1592 111.743 55.6702 111.56 55.164 111.56H50.3284C50.3486 111.445 50.3591 111.328 50.3598 111.211V109.466C50.3598 108.911 50.1391 108.378 49.7464 107.985C49.3537 107.593 48.8211 107.372 48.2658 107.372H44.0777C43.5223 107.372 42.9897 107.593 42.597 107.985C42.2043 108.378 41.9837 108.911 41.9837 109.466V111.211C41.9844 111.328 41.9949 111.445 42.015 111.56H37.1794C36.6733 111.56 36.1842 111.743 35.8028 112.076C35.4214 112.409 35.1734 112.868 35.1047 113.37L28.6983 160.136C28.6577 160.433 28.6811 160.734 28.7668 161.021C28.8524 161.307 28.9984 161.572 29.195 161.797C29.3915 162.022 29.6341 162.203 29.9062 162.327C30.1784 162.451 30.4739 162.515 30.7729 162.515H61.5705C61.8695 162.515 62.165 162.451 62.4372 162.327C62.7094 162.203 62.9519 162.022 63.1485 161.797C63.345 161.572 63.491 161.307 63.5767 161.021C63.6624 160.734 63.6857 160.433 63.6451 160.136Z" fill="#2F2E41"/>
<path d="M53.675 136.557V114.196L53.8303 114.179C56.4852 113.895 59.1539 114.573 61.3515 116.089C63.5491 117.606 65.1298 119.86 65.8065 122.443L69.7891 132.976L53.675 136.557Z" fill="#2F2E41"/>
<path d="M45.1122 102.817L32.8009 98.0384C30.7877 97.257 28.7633 96.4994 26.7608 95.6911C25.9031 95.3922 25.1129 94.9265 24.4359 94.3208C23.8465 93.6969 23.4448 92.9195 23.2769 92.0778C22.8499 90.273 22.9271 88.2998 22.9575 86.458C22.9811 84.4431 23.147 82.4324 23.4537 80.4409C23.9913 76.6985 25.2539 73.0969 27.1707 69.838C30.6233 64.1731 36.5719 59.9111 43.4144 60.2512C46.5822 60.4087 49.7682 61.5454 52.1218 63.7112C52.3673 64.0047 52.6428 64.2716 52.9437 64.5078C53.1529 64.5863 53.3805 64.6016 53.5983 64.5518C53.8855 64.5333 54.173 64.5192 54.4607 64.5095C55.4589 64.4674 56.4589 64.5093 57.4501 64.6349C59.2564 64.83 60.9684 65.5409 62.3816 66.6826C63.5578 67.6944 64.5148 69.1227 64.6133 70.71C64.6609 71.4387 64.5404 72.1686 64.2612 72.8433C63.982 73.5181 63.5515 74.1196 63.0029 74.6016C61.5341 75.8395 59.4385 75.4044 57.6766 75.3111L51.2222 74.9691L47.952 74.7959C47.2787 74.7602 47.2806 75.8073 47.952 75.8429L56.6439 76.3034C58.0407 76.3774 59.4803 76.5588 60.8782 76.475C61.9523 76.4263 62.978 76.0138 63.7865 75.305C64.525 74.6266 65.075 73.7685 65.3831 72.8143C65.6912 71.86 65.7467 70.8422 65.5443 69.8601C65.0962 67.7181 63.502 65.9462 61.6332 64.892C59.0903 63.4577 56.0533 63.3203 53.2079 63.5323L53.5781 63.6856C50.3595 60.2311 45.4294 58.7726 40.801 59.283C35.9141 59.8219 31.5677 62.5482 28.4448 66.2762C24.963 70.4326 23.0656 75.6154 22.328 80.9448C21.9441 83.8222 21.8178 86.7281 21.9504 89.6279C21.9449 90.9068 22.1637 92.1767 22.5968 93.3801C23.091 94.5512 23.9845 95.5091 25.1184 96.0835C26.4184 96.7111 27.7549 97.2601 29.1207 97.7276L33.6565 99.4881L42.566 102.946L44.8338 103.827C45.4623 104.07 45.7346 103.058 45.1122 102.817Z" fill="#2F2E41"/>
<path d="M25.7548 67.2365C24.6849 67.2365 23.639 66.9192 22.7494 66.3248C21.8598 65.7304 21.1664 64.8856 20.757 63.8971C20.3476 62.9086 20.2404 61.8209 20.4492 60.7716C20.6579 59.7222 21.1731 58.7583 21.9296 58.0018C22.6862 57.2452 23.6501 56.73 24.6994 56.5213C25.7488 56.3126 26.8365 56.4197 27.8249 56.8291C28.8134 57.2386 29.6583 57.9319 30.2527 58.8215C30.8471 59.7111 31.1643 60.757 31.1643 61.8269C31.1627 63.2611 30.5923 64.6361 29.5781 65.6503C28.564 66.6644 27.189 67.2349 25.7548 67.2365ZM25.7548 57.4644C24.892 57.4644 24.0485 57.7202 23.3311 58.1996C22.6137 58.679 22.0545 59.3603 21.7243 60.1575C21.3941 60.9546 21.3077 61.8318 21.4761 62.678C21.6444 63.5243 22.0599 64.3016 22.67 64.9117C23.2801 65.5218 24.0574 65.9373 24.9037 66.1057C25.7499 66.274 26.6271 66.1876 27.4243 65.8574C28.2214 65.5272 28.9027 64.9681 29.3821 64.2506C29.8615 63.5332 30.1173 62.6898 30.1173 61.8269C30.116 60.6703 29.656 59.5614 28.8381 58.7436C28.0203 57.9257 26.9114 57.4657 25.7548 57.4644Z" fill="#2F2E41"/>
<path d="M116.183 100.76L104.475 91.8049L95.5195 103.514L107.228 112.469L116.183 100.76Z" fill="#F0F0F0"/>
<path d="M50.0107 20.819C51.8607 20.8176 53.6853 21.2493 55.3384 22.0797C56.9916 22.9102 58.4273 24.1161 59.5306 25.6011L66.3675 16.6618L45.8535 0.972046L30.1638 21.4862L39.0053 28.2484C39.8901 26.054 41.4106 24.1742 43.3717 22.8504C45.3327 21.5266 47.6447 20.8192 50.0107 20.819Z" fill="#F0F0F0"/>
<path d="M65.1822 196.62H36.415C36.4042 196.62 36.3938 196.29 36.3862 195.702C36.3786 195.114 36.3743 194.316 36.3743 193.485C36.3743 192.653 36.3786 191.855 36.3862 191.267C36.3938 190.679 36.4042 190.349 36.415 190.349H65.1822C65.193 190.349 65.2033 190.679 65.211 191.267C65.2186 191.855 65.2229 192.653 65.2229 193.485C65.2229 194.316 65.2186 195.114 65.211 195.702C65.2033 196.29 65.193 196.62 65.1822 196.62Z" fill="#3F3D56"/>
<path d="M186.608 137.062H161.528C160.603 137.061 159.715 136.693 159.061 136.038C158.407 135.384 158.039 134.497 158.038 133.572V131.834C158.039 130.909 158.407 130.022 159.061 129.368C159.715 128.713 160.603 128.345 161.528 128.344H186.608C187.533 128.345 188.42 128.713 189.075 129.368C189.729 130.022 190.097 130.909 190.098 131.834V133.572C190.097 134.497 189.729 135.384 189.075 136.038C188.42 136.693 187.533 137.061 186.608 137.062Z" fill="#FF2525"/>
<path d="M189.251 133.713H164.171C163.199 133.711 162.268 133.325 161.581 132.638C160.894 131.951 160.507 131.02 160.506 130.048V128.311C160.507 127.339 160.894 126.408 161.581 125.721C162.268 125.034 163.199 124.647 164.171 124.646H189.251C190.222 124.647 191.154 125.034 191.841 125.721C192.528 126.408 192.914 127.339 192.915 128.311V130.048C192.914 131.02 192.528 131.951 191.841 132.638C191.154 133.325 190.222 133.711 189.251 133.713ZM164.171 125.344C163.384 125.345 162.63 125.658 162.074 126.214C161.518 126.77 161.205 127.524 161.204 128.311V130.048C161.205 130.834 161.518 131.589 162.074 132.145C162.63 132.701 163.384 133.014 164.171 133.014H189.251C190.037 133.014 190.791 132.701 191.348 132.145C191.904 131.589 192.217 130.834 192.217 130.048V128.311C192.217 127.524 191.904 126.77 191.348 126.214C190.791 125.658 190.037 125.345 189.251 125.344H164.171Z" fill="#3F3D56"/>
<path d="M97.8345 136.435H115.395" stroke="black" stroke-width="2.50858" stroke-linecap="round" stroke-linejoin="round"/>
<path d="M106.615 127.655L115.395 136.435L106.615 145.215" stroke="black" stroke-width="2.50858" stroke-linecap="round" stroke-linejoin="round"/>
</g>
<defs>
<clipPath id="clip0_1_2618">
<rect y="0.972046" width="247.095" height="194" rx="18.8143" fill="white"/>
</clipPath>
</defs>
</svg>
