<svg width="408" height="217" viewBox="0 0 408 217" fill="none" xmlns="http://www.w3.org/2000/svg">
<path d="M408 214H0C4.30601 195.716 19.7508 180.415 40.6993 172.481C48.4525 169.513 56.9878 167.564 65.9618 166.851C71.5081 152.26 81.1215 139.016 93.7854 127.892C118.166 106.492 153.889 93 193.695 93C248.499 93 295.538 118.591 315.967 155.16C318.547 154.956 321.155 154.801 323.793 154.801C362.393 154.801 393.653 178.983 393.653 208.793C393.653 209.095 393.653 209.348 393.622 209.608C398.791 210.447 403.632 211.961 408 214Z" fill="#DCF4E6"/>
<path d="M408 214H0C4.30601 195.716 19.7508 180.415 40.6993 172.481C48.4525 169.513 56.9878 167.564 65.9618 166.851C71.5081 152.26 81.1215 139.016 93.7854 127.892C118.166 106.492 153.889 93 193.695 93C248.499 93 295.538 118.591 315.967 155.16C318.547 154.956 321.155 154.801 323.793 154.801C362.393 154.801 393.653 178.983 393.653 208.793C393.653 209.095 393.653 209.348 393.622 209.608C398.791 210.447 403.632 211.961 408 214Z" fill="#DCF4E6"/>
<path d="M157.273 154.525C164.846 141.202 179.293 130.972 194.587 131.957C183.306 144.225 176.728 160.087 176.016 176.738C175.765 183.16 176.155 190.329 171.89 195.138C169.237 198.131 165.181 199.58 161.194 199.884C157.206 200.188 153.219 199.467 149.285 198.75L148.33 199.043C147.967 183.722 149.699 167.848 157.273 154.525Z" fill="#9AE990"/>
<path d="M194.61 132.278C183.3 137.723 173.657 146.815 167.737 157.904C166.458 160.302 165.368 162.845 164.893 165.534C164.417 168.225 164.749 170.786 165.668 173.341C166.508 175.677 167.638 177.969 167.896 180.469C168.167 183.103 167.198 185.567 165.453 187.522C163.318 189.914 160.451 191.396 157.596 192.749C154.427 194.25 151.112 195.759 148.867 198.561C148.595 198.901 148.084 198.459 148.356 198.12C152.261 193.245 158.946 192.328 163.582 188.401C165.745 186.569 167.369 184.073 167.266 181.149C167.176 178.593 166.013 176.228 165.142 173.87C164.228 171.394 163.772 168.905 164.1 166.265C164.435 163.565 165.428 160.973 166.641 158.554C169.376 153.097 173.119 148.087 177.408 143.756C182.336 138.778 188.08 134.68 194.391 131.639C194.781 131.451 194.998 132.091 194.61 132.278Z" fill="white"/>
<path d="M169.471 154.198C167.738 152.931 166.511 151.088 166.011 148.999C165.51 146.911 165.768 144.712 166.739 142.796C166.937 142.409 167.547 142.698 167.349 143.086C166.442 144.868 166.202 146.916 166.672 148.86C167.142 150.804 168.291 152.516 169.913 153.687C170.265 153.942 169.822 154.452 169.471 154.198Z" fill="white"/>
<path d="M165.086 172.212C169.431 171.578 173.376 169.329 176.136 165.914C176.409 165.576 176.92 166.017 176.647 166.355C173.769 169.903 169.658 172.235 165.136 172.886C164.705 172.948 164.658 172.274 165.086 172.212Z" fill="white"/>
<path d="M182.67 139.61C183.239 140.24 183.955 140.719 184.755 141.004C185.554 141.289 186.412 141.371 187.251 141.243C187.681 141.176 187.728 141.85 187.301 141.916C186.373 142.054 185.426 141.962 184.541 141.649C183.657 141.336 182.863 140.812 182.229 140.121C182.164 140.061 182.124 139.978 182.117 139.89C182.111 139.801 182.138 139.714 182.194 139.645C182.253 139.577 182.336 139.536 182.425 139.529C182.514 139.523 182.602 139.551 182.67 139.61Z" fill="white"/>
<path d="M225.016 173.987C224.749 174.036 224.481 174.086 224.211 174.141C220.62 174.826 217.091 175.801 213.658 177.058C213.391 177.151 213.122 177.249 212.858 177.349C204.619 180.465 197.031 185.083 190.478 190.969C187.873 193.313 185.449 195.853 183.229 198.565C180.163 202.311 177.137 206.616 173.131 209.058C172.716 209.318 172.285 209.551 171.841 209.758L148.762 200.185C148.721 200.137 148.677 200.094 148.635 200.046L147.696 199.705C147.801 199.558 147.912 199.406 148.017 199.259C148.077 199.173 148.143 199.089 148.203 199.003C148.245 198.946 148.287 198.889 148.322 198.836C148.336 198.817 148.35 198.798 148.362 198.784C148.396 198.731 148.434 198.685 148.466 198.637C149.089 197.79 149.719 196.947 150.355 196.106C150.358 196.101 150.358 196.101 150.365 196.098C155.232 189.705 160.676 183.662 166.864 178.638C167.05 178.487 167.239 178.33 167.435 178.183C170.237 175.934 173.218 173.918 176.349 172.154C178.066 171.194 179.83 170.321 181.636 169.54C186.305 167.529 191.261 166.265 196.322 165.794C206.413 164.857 216.69 167.158 224.429 173.497C224.627 173.659 224.82 173.819 225.016 173.987Z" fill="#9AE990"/>
<path d="M224.843 174.258C212.535 171.796 199.361 173.25 187.958 178.54C185.493 179.684 183.092 181.058 181.093 182.919C179.094 184.781 177.817 187.026 177.012 189.62C176.277 191.991 175.799 194.501 174.499 196.652C173.13 198.919 170.873 200.302 168.302 200.813C165.157 201.437 161.975 200.895 158.882 200.256C155.448 199.546 151.892 198.755 148.413 199.641C147.991 199.748 147.849 199.088 148.27 198.981C154.324 197.44 160.213 200.733 166.279 200.388C169.109 200.227 171.908 199.213 173.587 196.816C175.055 194.721 175.55 192.132 176.274 189.725C177.034 187.198 178.169 184.936 180.02 183.025C181.914 181.072 184.266 179.6 186.691 178.398C192.161 175.688 198.166 173.942 204.198 173.066C211.13 172.059 218.183 172.245 225.053 173.616C225.478 173.701 225.265 174.343 224.843 174.258Z" fill="white"/>
<path d="M191.574 176.625C190.953 174.569 191.083 172.359 191.941 170.39C192.799 168.421 194.329 166.821 196.257 165.876C196.648 165.686 196.962 166.285 196.57 166.475C194.773 167.352 193.348 168.842 192.553 170.677C191.758 172.512 191.645 174.571 192.234 176.482C192.362 176.898 191.701 177.038 191.574 176.625Z" fill="white"/>
<path d="M177.227 188.368C181.078 190.477 185.582 191.057 189.841 189.992C190.263 189.886 190.405 190.547 189.984 190.652C185.549 191.752 180.863 191.139 176.861 188.936C176.479 188.726 176.848 188.159 177.227 188.368Z" fill="white"/>
<path d="M210.896 172.923C210.97 173.769 211.254 174.583 211.72 175.292C212.187 176.001 212.823 176.583 213.57 176.985C213.954 177.191 213.585 177.757 213.204 177.553C212.38 177.104 211.679 176.461 211.162 175.679C210.644 174.896 210.326 173.999 210.235 173.066C210.219 172.979 210.237 172.889 210.285 172.814C210.334 172.739 210.408 172.686 210.494 172.665C210.582 172.646 210.673 172.663 210.748 172.711C210.823 172.76 210.876 172.836 210.896 172.923Z" fill="white"/>
<path d="M128.088 142.697C128 142.503 127.912 142.308 127.824 142.112C127.858 142.113 127.891 142.118 127.925 142.119L128.088 142.697Z" fill="#2F2E41"/>
<path d="M192.646 0C189.292 0 186.075 1.33233 183.704 3.70388C181.332 6.07544 180 9.29197 180 12.6459C180 15.9997 181.332 19.2163 183.704 21.5878C186.075 23.9594 189.292 25.2917 192.646 25.2917H286.888C290.242 25.2917 293.458 23.9594 295.83 21.5878C298.201 19.2163 299.533 15.9997 299.533 12.6459C299.533 9.29197 298.201 6.07544 295.83 3.70388C293.458 1.33233 290.242 0 286.888 0H192.646Z" fill="#E5E5E5"/>
<path d="M192.646 2.55933C189.971 2.55933 187.405 3.62202 185.513 5.51362C183.622 7.40522 182.559 9.97078 182.559 12.6459C182.559 15.321 183.622 17.8866 185.513 19.7782C187.405 21.6698 189.971 22.7325 192.646 22.7325H286.887C289.563 22.7325 292.128 21.6698 294.02 19.7782C295.911 17.8866 296.974 15.321 296.974 12.6459C296.974 9.97078 295.911 7.40522 294.02 5.51362C292.128 3.62202 289.563 2.55933 286.887 2.55933H192.646Z" fill="white"/>
<path d="M204.046 15.341C205.971 15.341 207.531 13.7807 207.531 11.856C207.531 9.93136 205.971 8.37109 204.046 8.37109C202.121 8.37109 200.561 9.93136 200.561 11.856C200.561 13.7807 202.121 15.341 204.046 15.341Z" fill="#DF1317"/>
<path d="M227.976 15.5207C229.901 15.5207 231.461 13.9604 231.461 12.0357C231.461 10.111 229.901 8.55078 227.976 8.55078C226.051 8.55078 224.491 10.111 224.491 12.0357C224.491 13.9604 226.051 15.5207 227.976 15.5207Z" fill="#DF1317"/>
<path d="M251.906 15.5207C253.831 15.5207 255.391 13.9604 255.391 12.0357C255.391 10.111 253.831 8.55078 251.906 8.55078C249.981 8.55078 248.421 10.111 248.421 12.0357C248.421 13.9604 249.981 15.5207 251.906 15.5207Z" fill="#DF1317"/>
<path d="M275.836 15.5207C277.76 15.5207 279.321 13.9604 279.321 12.0357C279.321 10.111 277.76 8.55078 275.836 8.55078C273.911 8.55078 272.351 10.111 272.351 12.0357C272.351 13.9604 273.911 15.5207 275.836 15.5207Z" fill="#DF1317"/>
<path d="M135.139 17.0505C139.615 10.7471 148.471 10.4533 148.471 10.4533C148.471 10.4533 157.101 9.53363 162.636 19.1339C167.796 28.0821 160.526 39.2048 160.526 39.2048C159.089 39.291 152.877 39.3285 134.388 37.0444L133.56 32.5772L131.184 36.651C130.196 36.5304 129.168 36.4056 128.094 36.2759C128.58 31.5353 130.832 23.1157 135.139 17.0505Z" fill="#2F2E41"/>
<path d="M124.588 105.245L125.774 64.4548L133.847 67.9869L129.951 105.687C130.791 106.338 131.398 107.243 131.682 108.268C131.965 109.292 131.911 110.38 131.525 111.37C131.14 112.361 130.445 113.2 129.544 113.764C128.643 114.327 127.585 114.584 126.525 114.497C125.466 114.41 124.464 113.983 123.667 113.28C122.871 112.576 122.323 111.634 122.105 110.594C121.887 109.554 122.011 108.472 122.458 107.508C122.906 106.544 123.653 105.75 124.588 105.245Z" fill="#FFB8B8"/>
<path d="M135.108 69.7528C129.843 70.2623 126.062 68.0872 123.503 63.6979L125.269 55.6114C125.269 52.9807 126.108 50.4184 127.663 48.2965C129.218 46.1746 131.409 44.6036 133.917 43.8114L134.856 43.5149L135.108 69.7528Z" fill="#E6E6E6"/>
<path d="M179.028 58.5366C179.097 58.5366 179.166 58.5294 179.233 58.5152L188.973 58.3508L188.994 58.1087L188.994 58.0982L188.186 38.0299C188.177 37.8249 188.127 37.6236 188.041 37.4377C187.954 37.2517 187.831 37.0847 187.68 36.9461C187.528 36.8076 187.351 36.7002 187.158 36.6302C186.965 36.5601 186.761 36.5288 186.556 36.5379L178.754 36.8858C178.549 36.895 178.348 36.9444 178.162 37.0312C177.976 37.1181 177.81 37.2407 177.671 37.3921C177.533 37.5435 177.425 37.7207 177.355 37.9135C177.285 38.1064 177.254 38.3112 177.263 38.5161L178.031 57.5777C178.041 57.8353 178.151 58.0789 178.337 58.2575C178.522 58.4362 178.77 58.5362 179.028 58.5366Z" fill="#6C63FF"/>
<path d="M180.089 58.5508C180.114 58.5508 180.139 58.5502 180.164 58.5491L187.812 58.2081C188.246 58.1883 188.654 57.997 188.948 57.6763C189.241 57.3556 189.395 56.9316 189.376 56.4974L188.559 38.1737C188.541 37.7599 188.358 37.3706 188.053 37.091C187.747 36.8115 187.343 36.6646 186.929 36.6826L179.128 37.0304C178.714 37.0493 178.325 37.2316 178.045 37.5373C177.766 37.8429 177.619 38.247 177.637 38.6608L178.454 56.9846C178.472 57.4059 178.653 57.8038 178.958 58.0955C179.262 58.3872 179.668 58.5503 180.089 58.5508Z" fill="#2F2E41"/>
<path d="M183.514 42.5855C182.897 42.5855 182.397 42.0855 182.397 41.4686C182.397 40.8518 182.897 40.3518 183.514 40.3518C184.13 40.3518 184.63 40.8518 184.63 41.4686C184.63 42.0855 184.13 42.5855 183.514 42.5855Z" fill="#6C63FF"/>
<path d="M174.229 63.5228V70.8885L181.345 59.676C180.839 58.8112 180.626 57.806 180.739 56.8105C180.851 55.8149 181.282 54.8824 181.968 54.1519C182.653 53.4214 183.557 52.9322 184.543 52.7572C185.53 52.5822 186.546 52.7308 187.441 53.1809C188.336 53.6309 189.062 54.3583 189.51 55.2544C189.958 56.1506 190.104 57.1675 189.927 58.1536C189.749 59.1396 189.258 60.0418 188.526 60.7257C187.794 61.4096 186.86 61.8385 185.864 61.9483L175.917 79.573C175.399 80.492 174.6 81.2215 173.638 81.6551C172.676 82.0887 171.6 82.2038 170.568 81.9836C169.536 81.7635 168.601 81.2195 167.9 80.4311C167.198 79.6426 166.767 78.6508 166.669 77.6001L165.438 64.4733L174.229 63.5228Z" fill="#FFB8B8"/>
<path d="M164.487 69.2253C169.446 69.705 173.008 67.6566 175.417 63.5228L173.754 55.907C173.754 53.4293 172.964 51.0162 171.5 49.0178C170.035 47.0195 167.972 45.5398 165.609 44.7938L164.725 44.5145L164.487 69.2253Z" fill="#E6E6E6"/>
<path d="M152.991 201.211L158.417 200.33L157.603 178.985L149.596 180.284L152.991 201.211Z" fill="#FFB6B6"/>
<path d="M151.773 205.312L169.495 205.33L169.495 205.105C169.497 203.276 168.772 201.521 167.48 200.226C166.187 198.931 164.434 198.202 162.604 198.2L151.78 198.19L151.773 205.312Z" fill="#2F2E41"/>
<path d="M127.065 188.781L131.972 191.257L143.856 173.508L136.614 169.854L127.065 188.781Z" fill="#FFB6B6"/>
<path d="M123.413 192.906L139.236 200.889L139.337 200.689C140.161 199.056 140.302 197.162 139.73 195.424C139.158 193.687 137.919 192.247 136.286 191.423L126.621 186.547L123.413 192.906Z" fill="#2F2E41"/>
<path d="M149.079 37.363C143.751 37.363 139.431 33.0436 139.431 27.7152C139.431 22.3869 143.751 18.0674 149.079 18.0674C154.407 18.0674 158.727 22.3869 158.727 27.7152C158.727 33.0436 154.407 37.363 149.079 37.363Z" fill="#FFB8B8"/>
<path d="M137.118 17.9898L145.867 13.4067L157.949 15.2817L160.449 26.3224C148.11 28.0968 139.569 29.1145 136.701 26.114L137.118 17.9898Z" fill="#2F2E41"/>
<path d="M164.639 88.0435C164.639 88.0435 171.994 103.085 163.845 125.344L141.337 182.737L130.577 176.376L141.545 151.667L132.623 121.423C130.569 114.569 129.935 107.367 130.762 100.26C131.405 94.9413 132.897 89.5325 136.143 86.8058C143.781 80.39 164.639 88.0435 164.639 88.0435Z" fill="#2F2E41"/>
<path d="M152.335 147.298L160.495 188.668L149.628 190.717L142.792 154.908L152.335 147.298Z" fill="#2F2E41"/>
<path d="M141.963 42.0736L154.437 42.2399L165.356 44.7516L164.709 88.4862C164.709 88.4862 144.967 94.0716 136.296 86.3476L130.576 45.4139C133.786 43.6 137.639 42.5558 141.963 42.0736Z" fill="#E4E4E4"/>
<path d="M143.067 17.8403C139.654 17.8403 136.887 15.0735 136.887 11.6604C136.887 8.24732 139.654 5.48047 143.067 5.48047C146.48 5.48047 149.247 8.24732 149.247 11.6604C149.247 15.0735 146.48 17.8403 143.067 17.8403Z" fill="#2F2E41"/>
<path d="M149.247 10.2343C149.248 9.32037 149.046 8.41769 148.655 7.59139C148.264 6.7651 147.695 6.03577 146.989 5.45603C146.282 4.87629 145.456 4.46059 144.569 4.23889C143.682 4.01719 142.758 3.99502 141.861 4.17398C142.652 3.80076 143.514 3.59985 144.389 3.58456C145.263 3.56927 146.131 3.73996 146.935 4.0853C147.739 4.43064 148.46 4.94277 149.051 5.58779C149.642 6.23281 150.089 6.99601 150.363 7.82685C150.637 8.65769 150.731 9.53723 150.64 10.4072C150.548 11.2773 150.273 12.1179 149.832 12.8735C149.391 13.6291 148.795 14.2825 148.082 14.7903C147.37 15.2982 146.558 15.6489 145.7 15.8193C146.76 15.3208 147.657 14.531 148.285 13.5421C148.913 12.5532 149.247 11.4059 149.247 10.2343Z" fill="#2F2E41"/>
<path d="M192.5 33L197.263 24H187.737L192.5 33Z" fill="#E5E5E5"/>
</svg>
