<svg width="27" height="27" viewBox="0 0 27 27" fill="none" xmlns="http://www.w3.org/2000/svg">
<path d="M13.4963 1C13.6106 1 13.7202 1.0439 13.8011 1.12204C13.8819 1.20018 13.9273 1.30616 13.9273 1.41667V3.5C13.9273 3.61051 13.8819 3.71649 13.8011 3.79463C13.7202 3.87277 13.6106 3.91667 13.4963 3.91667C13.382 3.91667 13.2723 3.87277 13.1915 3.79463C13.1107 3.71649 13.0653 3.61051 13.0653 3.5V1.41667C13.0653 1.30616 13.1107 1.20018 13.1915 1.12204C13.2723 1.0439 13.382 1 13.4963 1ZM6.18278 6.60342C6.22257 6.64308 6.27013 6.67469 6.32268 6.69641C6.37523 6.71814 6.43173 6.72955 6.48888 6.72997C6.54603 6.73039 6.6027 6.71982 6.65559 6.69887C6.70848 6.67793 6.75653 6.64702 6.79695 6.60795C6.83736 6.56889 6.86934 6.52244 6.89101 6.47131C6.91269 6.42019 6.92363 6.36541 6.92319 6.31016C6.92276 6.25491 6.91097 6.2003 6.88849 6.1495C6.86602 6.09869 6.83332 6.05272 6.7923 6.01425L5.26792 4.54167C5.22808 4.50217 5.18053 4.47071 5.12802 4.44912C5.07551 4.42753 5.01909 4.41623 4.96202 4.41588C4.90496 4.41553 4.8484 4.42614 4.79561 4.44708C4.74282 4.46803 4.69486 4.4989 4.65451 4.53791C4.61416 4.57691 4.58222 4.62328 4.56055 4.67431C4.53888 4.72534 4.52791 4.78002 4.52827 4.83518C4.52863 4.89034 4.54032 4.94488 4.56266 4.99564C4.585 5.0464 4.61754 5.09237 4.6584 5.13087L6.18278 6.60342ZM3.58608 12.6695L1.43092 12.6703C1.31661 12.6704 1.20698 12.7143 1.12617 12.7924C1.04536 12.8706 0.999971 12.9766 1 13.0871C1.00003 13.1976 1.04547 13.3036 1.12632 13.3817C1.20718 13.4598 1.31682 13.5037 1.43114 13.5037L3.58608 13.5028C3.64268 13.5028 3.69873 13.492 3.75102 13.4711C3.80331 13.4501 3.85082 13.4194 3.89083 13.3807C3.93084 13.342 3.96258 13.2961 3.98423 13.2455C4.00588 13.195 4.01701 13.1408 4.017 13.0861C4.01699 13.0313 4.00582 12.9772 3.98415 12.9266C3.96247 12.8761 3.93071 12.8301 3.89068 12.7915C3.85064 12.7528 3.80312 12.7221 3.75082 12.7012C3.69852 12.6802 3.64268 12.6695 3.58608 12.6695ZM20.8168 19.5632C20.777 19.5236 20.7294 19.492 20.6769 19.4703C20.6243 19.4485 20.5678 19.4371 20.5107 19.4367C20.4535 19.4363 20.3969 19.4468 20.344 19.4678C20.2911 19.4887 20.243 19.5196 20.2026 19.5587C20.1622 19.5978 20.1302 19.6442 20.1086 19.6954C20.0869 19.7465 20.0759 19.8013 20.0764 19.8565C20.0768 19.9118 20.0886 19.9664 20.1111 20.0172C20.1335 20.068 20.1662 20.1139 20.2073 20.1524L21.7317 21.625C21.7715 21.6645 21.819 21.696 21.8715 21.7175C21.9241 21.7391 21.9805 21.7504 22.0375 21.7508C22.0946 21.7511 22.1512 21.7405 22.204 21.7196C22.2568 21.6986 22.3047 21.6678 22.3451 21.6288C22.3854 21.5898 22.4173 21.5434 22.439 21.4924C22.4607 21.4413 22.4717 21.3867 22.4713 21.3315C22.4709 21.2763 22.4592 21.2218 22.4369 21.171C22.4146 21.1203 22.382 21.0743 22.3412 21.0358L20.8168 19.5632ZM6.18278 19.5632L4.6584 21.0358C4.61754 21.0743 4.585 21.1203 4.56266 21.171C4.54032 21.2218 4.52863 21.2763 4.52827 21.3315C4.52791 21.3867 4.53888 21.4413 4.56055 21.4924C4.58222 21.5434 4.61416 21.5898 4.65451 21.6288C4.69486 21.6678 4.74282 21.6986 4.79561 21.7196C4.8484 21.7405 4.90496 21.7511 4.96202 21.7508C5.01909 21.7504 5.07551 21.7391 5.12802 21.7175C5.18053 21.696 5.22808 21.6645 5.26792 21.625L6.7923 20.1524C6.83332 20.1139 6.86602 20.068 6.88849 20.0172C6.91097 19.9664 6.92276 19.9118 6.92319 19.8565C6.92363 19.8013 6.91269 19.7465 6.89101 19.6954C6.86934 19.6442 6.83736 19.5978 6.79695 19.5587C6.75653 19.5196 6.70848 19.4887 6.65559 19.4678C6.6027 19.4468 6.54603 19.4363 6.48888 19.4367C6.43173 19.4371 6.37523 19.4485 6.32268 19.4703C6.27013 19.492 6.22257 19.5236 6.18278 19.5632ZM25.5686 12.663L23.4135 12.6638C23.2992 12.6639 23.1896 12.7078 23.1087 12.7859C23.0279 12.8641 22.9825 12.9701 22.9826 13.0806C22.9826 13.1911 23.028 13.2971 23.1089 13.3752C23.1897 13.4533 23.2994 13.4972 23.4137 13.4972L25.5691 13.4963C25.6834 13.4963 25.793 13.4524 25.8738 13.3742C25.9546 13.2961 26 13.1901 26 13.0796C26 12.9691 25.9545 12.8631 25.8737 12.785C25.7928 12.7068 25.683 12.663 25.5686 12.663ZM20.5076 6.72142C20.5643 6.72149 20.6204 6.71075 20.6727 6.6898C20.725 6.66886 20.7726 6.63813 20.8126 6.59938L22.3361 5.12558C22.417 5.04739 22.4623 4.94137 22.4623 4.83083C22.4623 4.72029 22.4168 4.6143 22.3359 4.53617C22.255 4.45803 22.1453 4.41416 22.031 4.4142C21.9167 4.41424 21.807 4.45819 21.7262 4.53637L20.2027 6.01017C20.1424 6.06845 20.1013 6.1427 20.0847 6.22354C20.0681 6.30437 20.0767 6.38815 20.1093 6.46429C20.1419 6.54042 20.1972 6.60548 20.2681 6.65125C20.339 6.69702 20.4224 6.72144 20.5076 6.72142ZM20.1313 16.048C20.7386 14.9345 21.0459 13.6909 21.0245 12.4322C21.0032 11.1736 20.6541 9.94041 20.0094 8.84667C19.4042 7.79502 18.5345 6.90778 17.4807 6.26692C16.427 5.62606 15.2232 5.25224 13.9805 5.18H13.9797C13.6597 5.16292 13.339 5.16292 13.0191 5.18C11.7764 5.25224 10.5726 5.62606 9.51883 6.26692C8.46509 6.90778 7.59541 7.79502 6.99014 8.84667C6.34545 9.94041 5.99633 11.1736 5.97502 12.4322C5.95372 13.6909 6.26092 14.9345 6.86825 16.048L9.62051 21.1029V23.0833C9.62143 23.8566 9.93961 24.598 10.5052 25.1447C11.0709 25.6915 11.8378 25.9991 12.6377 26H14.3618C15.1618 25.9991 15.9287 25.6915 16.4943 25.1447C17.06 24.598 17.3781 23.8566 17.3791 23.0833V21.1029L20.1313 16.048ZM10.4826 22.6667V21.4167H16.517V22.6667H10.4826ZM7.74065 9.25642C8.269 8.32157 9.03575 7.53278 9.96811 6.96491C10.9005 6.39705 11.9675 6.06896 13.0679 6.01179C13.3553 5.99633 13.6434 5.99633 13.9308 6.01179C15.0314 6.06884 16.0986 6.39687 17.0311 6.96474C17.9636 7.53261 18.7305 8.32147 19.2589 9.25642C19.8323 10.2289 20.1429 11.3254 20.1621 12.4446C20.1812 13.5637 19.9083 14.6695 19.3686 15.6598L16.6879 20.5833H13.9308V17.1039C14.1589 17.1364 14.3891 17.1539 14.6196 17.1564C14.9917 17.1737 15.3635 17.1188 15.7133 16.995C16.063 16.8712 16.3836 16.681 16.6561 16.4356C18.0053 15.1587 17.5129 12.6897 17.4913 12.5851C17.4804 12.5313 17.4586 12.4802 17.4271 12.4346C17.3957 12.3891 17.3552 12.35 17.308 12.3196C17.2609 12.2892 17.208 12.2682 17.1524 12.2576C17.0968 12.2471 17.0395 12.2474 16.984 12.2583C15.1309 12.6167 14.0373 14.3154 13.4998 15.4516C12.9622 14.3154 11.8686 12.6165 10.0155 12.2583C9.96003 12.2474 9.90283 12.2472 9.84723 12.2577C9.79164 12.2683 9.73874 12.2893 9.6916 12.3197C9.64446 12.3501 9.60399 12.3891 9.57253 12.4347C9.54108 12.4802 9.51925 12.5313 9.50831 12.5851C9.48676 12.6897 8.99439 15.1587 10.3434 16.4356C10.616 16.681 10.9366 16.8712 11.2863 16.995C11.6361 17.1188 12.0079 17.1737 12.3799 17.1564C12.6105 17.1539 12.8406 17.1364 13.0688 17.1039V20.5833H10.3117L7.631 15.6598C7.09123 14.6695 6.81833 13.5637 6.83749 12.4446C6.85666 11.3254 7.16728 10.2289 7.74065 9.25642ZM14.0725 16.286C14.3985 15.4702 15.2397 13.7523 16.7104 13.2005C16.7818 13.9618 16.7351 15.1943 16.0531 15.8401C15.6189 16.25 14.9541 16.4004 14.0725 16.286ZM12.9267 16.286C12.0478 16.4008 11.3817 16.2507 10.9477 15.8413C10.2216 15.1557 10.2275 13.8809 10.2917 13.2013C11.7607 13.7542 12.6009 15.4708 12.9267 16.286ZM14.3618 25.1667H12.6377C12.1412 25.166 11.66 24.9999 11.2754 24.6963C10.8907 24.3927 10.6261 23.9702 10.5261 23.5H16.4734C16.3735 23.9702 16.1088 24.3927 15.7242 24.6963C15.3396 24.9999 14.8584 25.166 14.3618 25.1667Z" fill="black" stroke="black" stroke-width="0.65"/>
</svg>
