<svg width="182" height="150" viewBox="0 0 182 150" fill="none" xmlns="http://www.w3.org/2000/svg">
<path d="M142.611 18.3366L134.96 17.7241C134.584 17.694 134.235 17.5159 133.991 17.2289C133.746 16.9419 133.626 16.5696 133.656 16.1938C133.686 15.818 133.864 15.4696 134.151 15.2251C134.438 14.9807 134.811 14.8603 135.186 14.8903L142.838 15.5029C143.213 15.5329 143.562 15.7111 143.806 15.9981C144.051 16.2851 144.171 16.6574 144.141 17.0332C144.111 17.4089 143.933 17.7574 143.646 18.0018C143.359 18.2463 142.986 18.3667 142.611 18.3366Z" fill="#EB3122"/>
<path d="M160.071 49.6032L112.747 45.8146C112.371 45.7845 112.023 45.6064 111.778 45.3194C111.534 45.0324 111.414 44.6601 111.444 44.2843C111.474 43.9085 111.652 43.5601 111.939 43.3157C112.226 43.0712 112.598 42.9508 112.974 42.9809L160.298 46.7694C160.673 46.7995 161.022 46.9776 161.266 47.2646C161.511 47.5516 161.631 47.9239 161.601 48.2997C161.571 48.6755 161.393 49.0239 161.106 49.2684C160.819 49.5128 160.447 49.6332 160.071 49.6032Z" fill="#E6E6E6"/>
<path d="M159.322 58.9546L111.999 55.166C111.623 55.1359 111.274 54.9578 111.03 54.6708C110.786 54.3838 110.665 54.0115 110.695 53.6357C110.725 53.2599 110.903 52.9115 111.19 52.6671C111.477 52.4226 111.85 52.3022 112.225 52.3323L159.549 56.1208C159.925 56.1509 160.273 56.329 160.518 56.616C160.762 56.903 160.883 57.2753 160.853 57.6511C160.823 58.0269 160.644 58.3753 160.357 58.6198C160.07 58.8642 159.698 58.9846 159.322 58.9546Z" fill="#E6E6E6"/>
<path d="M158.573 68.306L111.25 64.5174C110.874 64.4873 110.526 64.3092 110.281 64.0222C110.037 63.7352 109.916 63.3629 109.946 62.9871C109.976 62.6113 110.155 62.2629 110.442 62.0184C110.729 61.774 111.101 61.6536 111.477 61.6837L158.8 65.4722C159.176 65.5023 159.525 65.6804 159.769 65.9674C160.013 66.2544 160.134 66.6267 160.104 67.0025C160.074 67.3783 159.896 67.7267 159.609 67.9712C159.322 68.2156 158.949 68.336 158.573 68.306Z" fill="#E6E6E6"/>
<path d="M152.434 23.4015L124.456 21.1617C123.094 21.0538 121.744 21.4908 120.703 22.3768C119.662 23.2628 119.015 24.5255 118.904 25.8878L118.23 34.3126C118.123 35.6755 118.56 37.0253 119.447 38.0661C120.333 39.1069 121.596 39.7536 122.959 39.8645L150.936 42.1043C152.299 42.2115 153.649 41.7738 154.689 40.8872C155.729 40.0006 156.375 38.7375 156.486 37.3752L157.16 28.9504C157.268 27.5881 156.831 26.2387 155.945 25.1984C155.059 24.158 153.796 23.5118 152.434 23.4015ZM155.919 37.3298C155.822 38.5428 155.247 39.6675 154.32 40.4566C153.394 41.2457 152.192 41.6344 150.979 41.5373L130.895 39.9295C127.59 39.6648 124.524 38.0978 122.374 35.573C120.223 33.0482 119.164 29.7726 119.428 26.4667L119.471 25.9332C119.57 24.7212 120.146 23.5979 121.072 22.8097C121.998 22.0214 123.198 21.6326 124.411 21.7285L152.388 23.9683C153.6 24.0666 154.723 24.6416 155.512 25.5671C156.3 26.4926 156.689 27.6931 156.593 28.905L155.919 37.3298Z" fill="#E6E6E6"/>
<path d="M137.766 34.6987C140.427 34.9117 142.756 32.9276 142.969 30.267C143.182 27.6064 141.198 25.277 138.537 25.064C135.877 24.851 133.547 26.8351 133.334 29.4957C133.121 32.1562 135.105 34.4857 137.766 34.6987Z" fill="#E6E6E6"/>
<path d="M148.344 41.8967L126.782 40.0936L133.719 38.9378L134.79 36.2087L141.314 36.6939L143.045 39.6159L147.873 41.2887L148.312 41.4407L148.344 41.8967Z" fill="#E6E6E6"/>
<path d="M135.167 32.7379C136.266 32.0127 135.137 28.3449 136.784 29.2403C136.784 29.2403 138.976 28.0796 139.326 28.9857C139.73 30.0348 141.493 29.7147 142.582 29.443C142.514 29.2426 142.471 29.0346 142.454 28.8238C142.638 28.9937 142.834 29.1491 143.041 29.2888C143.193 29.2227 143.33 29.1273 143.445 29.0081C143.558 28.8979 143.635 28.7558 143.665 28.6009C143.695 28.446 143.676 28.2856 143.612 28.1414C143.458 27.8561 143.1 27.7435 142.905 27.4854C142.883 27.4495 142.87 27.4089 142.867 27.3669C142.864 27.3249 142.871 27.2828 142.888 27.2443C142.922 27.1494 142.934 27.0483 142.923 26.9483C142.913 26.8483 142.881 26.7517 142.829 26.6655C142.778 26.5794 142.707 26.5056 142.624 26.4497C142.54 26.3937 142.445 26.3569 142.346 26.3417C142.306 26.3397 142.267 26.3279 142.232 26.3071C142.061 26.1826 141.905 26.0381 141.768 25.8768C142.016 25.908 141.834 24.3627 139.347 24.4536C138.728 24.3811 138.35 25.0393 137.73 25.0985C136.318 24.134 134.898 25.2485 134.162 26.3636C133.426 27.4786 132.428 31.1824 135.167 32.7379Z" fill="#E6E6E6"/>
<path d="M176.519 6.1449L104.902 0.411506C103.539 0.303565 102.19 0.740537 101.149 1.62655C100.108 2.51256 99.4611 3.77524 99.3502 5.13758L94.1839 69.6707C94.0766 71.0336 94.5142 72.3834 95.4006 73.4242C96.2871 74.465 97.5502 75.1117 98.9128 75.2226L170.53 80.956C171.893 81.0632 173.242 80.6255 174.283 79.7389C175.323 78.8523 175.969 77.5893 176.079 76.2269L181.246 11.6938C181.353 10.3315 180.916 8.98209 180.03 7.94176C179.144 6.90143 177.881 6.25519 176.519 6.1449ZM175.513 76.1815C175.416 77.3945 174.841 78.5193 173.914 79.3083C172.988 80.0974 171.786 80.4861 170.573 80.389L131.28 77.2434C126.435 76.8555 121.714 75.5171 117.386 73.3046C113.058 71.092 109.208 68.0487 106.056 64.3483C102.904 60.648 100.512 56.363 99.0164 51.7382C97.5206 47.1134 96.9504 42.2392 97.3382 37.394L99.9169 5.18295C100.016 3.97095 100.591 2.84765 101.517 2.05943C102.443 1.27121 103.644 0.882393 104.857 0.978256L176.474 6.71165C177.686 6.80996 178.809 7.38496 179.597 8.31048C180.386 9.236 180.775 10.4364 180.679 11.6484L175.513 76.1815Z" fill="#E6E6E6"/>
<path d="M46.6001 79.1275L39.2819 81.4425C38.9225 81.5562 38.5326 81.5224 38.1981 81.3487C37.8635 81.1749 37.6117 80.8754 37.498 80.5159C37.3843 80.1565 37.4181 79.7666 37.5918 79.4321C37.7656 79.0975 38.0651 78.8457 38.4246 78.732L45.7428 76.4171C46.1022 76.3034 46.4921 76.3371 46.8266 76.5109C47.1612 76.6846 47.413 76.9842 47.5267 77.3436C47.6404 77.703 47.6066 78.0929 47.4329 78.4275C47.2591 78.762 46.9596 79.0138 46.6001 79.1275Z" fill="#EB3122"/>
<path d="M74.5527 101.513L29.2883 115.831C28.9289 115.945 28.539 115.911 28.2044 115.737C27.8699 115.564 27.6181 115.264 27.5044 114.905C27.3907 114.545 27.4244 114.155 27.5982 113.821C27.7719 113.486 28.0715 113.235 28.4309 113.121L73.6953 98.8024C74.0547 98.6888 74.4446 98.7225 74.7792 98.8962C75.1137 99.07 75.3655 99.3695 75.4792 99.729C75.5929 100.088 75.5592 100.478 75.3854 100.813C75.2117 101.147 74.9121 101.399 74.5527 101.513Z" fill="#E6E6E6"/>
<path d="M77.3823 110.457L32.1179 124.776C31.7585 124.889 31.3686 124.856 31.034 124.682C30.6995 124.508 30.4477 124.209 30.334 123.849C30.2203 123.49 30.254 123.1 30.4278 122.765C30.6015 122.431 30.9011 122.179 31.2605 122.065L76.5249 107.747C76.8843 107.633 77.2742 107.667 77.6088 107.841C77.9433 108.014 78.1951 108.314 78.3088 108.673C78.4225 109.033 78.3888 109.423 78.215 109.757C78.0413 110.092 77.7417 110.344 77.3823 110.457Z" fill="#E6E6E6"/>
<path d="M80.2116 119.402L34.9472 133.72C34.5878 133.834 34.1979 133.8 33.8634 133.626C33.5288 133.453 33.277 133.153 33.1633 132.794C33.0496 132.434 33.0834 132.044 33.2571 131.71C33.4309 131.375 33.7304 131.123 34.0898 131.01L79.3543 116.691C79.7137 116.578 80.1036 116.611 80.4381 116.785C80.7727 116.959 81.0245 117.259 81.1382 117.618C81.2519 117.977 81.2181 118.367 81.0444 118.702C80.8706 119.036 80.5711 119.288 80.2116 119.402Z" fill="#E6E6E6"/>
<path d="M57.6074 80.1187L30.8472 88.5836C29.5443 88.997 28.4586 89.9102 27.8283 91.1231C27.1979 92.3359 27.0744 93.7492 27.4849 95.053L30.0339 103.111C30.4479 104.414 31.3617 105.5 32.575 106.13C33.7883 106.76 35.2019 106.883 36.5059 106.473L63.2661 98.0076C64.5688 97.5936 65.654 96.6797 66.2836 95.4665C66.9133 94.2534 67.036 92.84 66.6249 91.5364L64.0759 83.4783C63.6625 82.1757 62.7493 81.0904 61.5365 80.4605C60.3238 79.8307 58.9107 79.7077 57.6074 80.1187ZM66.0828 91.7079C66.4498 92.8681 66.3409 94.1266 65.78 95.2065C65.2191 96.2865 64.2522 97.0994 63.092 97.4664L43.8823 103.543C40.7202 104.543 37.2904 104.246 34.3472 102.718C31.404 101.189 29.1886 98.5539 28.1884 95.3918L28.027 94.8815C27.662 93.7215 27.7721 92.4641 28.3329 91.3851C28.8937 90.3062 29.8596 89.4936 31.0186 89.1257L57.7789 80.6608C58.9384 80.2953 60.1955 80.4048 61.2744 80.9652C62.3533 81.5255 63.1659 82.491 63.5338 83.6497L66.0828 91.7079Z" fill="#E6E6E6"/>
<path d="M48.2763 96.1092C50.8211 95.3042 52.2315 92.5887 51.4265 90.0439C50.6215 87.4991 47.906 86.0887 45.3612 86.8937C42.8164 87.6987 41.406 90.4142 42.211 92.959C43.016 95.5038 45.7315 96.9142 48.2763 96.1092Z" fill="#E6E6E6"/>
<path d="M60.7864 98.7922L40.134 105.245L46.1247 101.561L46.0888 98.629L52.3144 96.6209L55.0187 98.6756L60.1216 98.4061L60.585 98.3818L60.7864 98.7922Z" fill="#E6E6E6"/>
<path d="M45.1308 95.2718C45.875 94.1861 43.4479 91.2137 45.3103 91.4229C45.3103 91.4229 46.9043 89.5217 47.5692 90.2294C48.3392 91.0489 49.8517 90.0882 50.758 89.4263C50.6196 89.2662 50.5015 89.0898 50.4062 88.9009C50.6401 88.9892 50.8804 89.0593 51.1251 89.1106C51.2409 88.9921 51.3322 88.852 51.3939 88.6982C51.457 88.5536 51.4743 88.3932 51.4435 88.2384C51.4128 88.0837 51.3354 87.9421 51.2218 87.8326C50.971 87.6265 50.5974 87.6569 50.3195 87.4913C50.2856 87.4664 50.2582 87.4336 50.2397 87.3958C50.2212 87.358 50.2122 87.3163 50.2134 87.2742C50.2085 87.1737 50.1815 87.0756 50.1344 86.9868C50.0872 86.898 50.0211 86.8207 49.9406 86.7603C49.8602 86.7 49.7674 86.6582 49.6689 86.6378C49.5705 86.6174 49.4687 86.619 49.371 86.6425C49.3329 86.6558 49.2921 86.6596 49.2522 86.6534C49.0467 86.6025 48.8481 86.5273 48.6604 86.4295C48.9015 86.3652 48.1507 85.0023 45.8815 86.0232C45.2813 86.1891 45.1785 86.9414 44.627 87.2296C42.9549 86.8684 42.0602 88.4355 41.7981 89.7458C41.536 91.0561 42.0076 94.8627 45.1308 95.2718Z" fill="#E6E6E6"/>
<path d="M73.4178 55.0599L4.91674 76.7286C3.61389 77.142 2.52819 78.0552 1.89785 79.268C1.2675 80.4809 1.14401 81.8942 1.55444 83.198L21.0797 144.923C21.4937 146.226 22.4076 147.311 23.6208 147.942C24.8341 148.572 26.2477 148.695 27.5518 148.284L96.0528 126.616C97.3555 126.202 98.4406 125.288 99.0703 124.075C99.7 122.861 99.8227 121.448 99.4116 120.144L79.8863 58.4195C79.4729 57.1169 78.5597 56.0316 77.3469 55.4018C76.1342 54.7719 74.7211 54.6489 73.4178 55.0599ZM98.8695 120.316C99.2365 121.476 99.1276 122.735 98.5667 123.815C98.0058 124.895 97.0389 125.707 95.8786 126.074L58.2958 137.963C53.6615 139.429 48.7837 139.968 43.9411 139.549C39.0985 139.129 34.3859 137.761 30.0722 135.52C25.7586 133.28 21.9286 130.212 18.8007 126.491C15.6728 122.771 13.3084 118.47 11.8424 113.836L2.09653 83.0265C1.73162 81.8665 1.84165 80.6091 2.40248 79.5301C2.96331 78.4511 3.92916 77.6386 5.08822 77.2707L73.5893 55.602C74.7488 55.2366 76.0059 55.346 77.0848 55.9064C78.1638 56.4667 78.9763 57.4322 79.3442 58.591L98.8695 120.316Z" fill="#E6E6E6"/>
</svg>
