<svg width="408" height="253" viewBox="0 0 408 253" fill="none" xmlns="http://www.w3.org/2000/svg">
<path d="M408 295H0C4.30601 276.716 19.7508 261.415 40.6993 253.481C48.4525 250.513 56.9878 248.564 65.9618 247.851C71.5081 233.26 81.1215 220.016 93.7854 208.892C118.166 187.492 153.889 174 193.695 174C248.499 174 295.538 199.591 315.967 236.16C318.547 235.956 321.155 235.801 323.793 235.801C362.393 235.801 393.653 259.983 393.653 289.793C393.653 290.095 393.653 290.348 393.622 290.608C398.791 291.447 403.632 292.961 408 295Z" fill="#DCF4E6"/>
<g clip-path="url(#clip0_110_396)">
<path d="M281.296 11.7891C280.992 10.0982 280.241 8.51977 279.119 7.21836C277.524 5.40312 275.588 3.91981 273.419 2.85311C271.251 1.78642 268.894 1.15724 266.483 1.00149C264.071 0.84575 261.653 1.16649 259.366 1.94541C257.078 2.72433 254.967 3.94617 253.151 5.54116L252.997 5.68061C250.83 3.58042 248.189 2.03353 245.297 1.17105C242.406 0.308575 239.349 0.155931 236.385 0.72606C233.422 1.29619 230.64 2.57229 228.275 4.44619C225.91 6.3201 224.032 8.73658 222.799 11.4908C221.666 14.0112 221.147 16.7642 221.284 19.524C221.42 22.2839 222.209 24.972 223.585 27.3682C224.203 28.4486 224.928 29.4635 225.751 30.3973C226.599 31.3656 249.499 56.8415 249.727 57.0971C249.755 57.1289 249.789 57.1544 249.827 57.1718C249.865 57.1892 249.906 57.1981 249.948 57.1979C249.956 57.1979 249.967 57.194 249.979 57.194C249.995 57.1938 250.011 57.1898 250.026 57.1824C250.101 57.164 250.167 57.1167 250.208 57.0507L250.328 56.8531L250.471 56.6091L252.59 53.0687C258.466 43.2495 266.387 33.9841 276.137 25.5322C276.764 24.9871 277.346 24.3911 277.876 23.7504C279.962 21.2564 281.221 18.1755 281.478 14.9343C281.552 13.8824 281.491 12.8254 281.296 11.7891Z" fill="#EB3122"/>
<path d="M199.866 117.689L198.675 120.459L200.621 130.296L220.474 127.535L220.316 115.541L219.917 112.913L199.866 117.689Z" fill="#FFB6B6"/>
<path d="M189.608 245.177H193.988L196.073 228.282H189.608V245.177Z" fill="#FFB6B6"/>
<path d="M201.828 249.353L195.178 244.758V241.758L194.405 241.806L189.608 242.091L188.18 242.175L187.297 252.766H190.438L190.996 249.801L192.432 252.766H200.765C201.164 252.766 201.553 252.638 201.875 252.401C202.196 252.164 202.433 251.831 202.552 251.45C202.671 251.069 202.664 250.66 202.534 250.283C202.404 249.905 202.157 249.58 201.828 249.353Z" fill="#2F2E41"/>
<path d="M214.212 245.177H218.592L221.168 220.304L212.938 219.812L214.212 245.177Z" fill="#FFB6B6"/>
<path d="M226.432 249.353L219.782 244.758V241.758L218.938 241.806L214.058 242.1L212.784 242.175L211.901 252.766H215.042L215.6 249.801L217.036 252.766H225.369C225.768 252.766 226.157 252.638 226.478 252.401C226.8 252.164 227.037 251.831 227.156 251.45C227.275 251.069 227.268 250.66 227.138 250.283C227.008 249.905 226.761 249.58 226.432 249.353Z" fill="#2F2E41"/>
<path d="M187.749 230.607H187.766L188.608 203.137C188.063 202.086 187.786 200.916 187.803 199.732C187.819 198.547 188.128 197.385 188.702 196.349L188.823 196.131L188.51 194.682C188.109 192.819 188.293 190.878 189.038 189.125L189.824 163.5C187.016 145.305 200.396 133.439 200.396 133.439L199.166 123.902L220.808 124.394L220.44 133.439L224.743 148.223C227.007 170.286 227.142 191.901 224.825 213C224.821 213.06 224.83 213.121 224.852 213.178C225.087 213.893 225.17 214.649 225.095 215.397C225.02 216.146 224.789 216.871 224.417 217.525C224.32 217.691 224.254 217.874 224.221 218.064C223.744 221.763 223.681 217.084 223.049 220.75L223.172 220.812C223.615 220.965 223.805 221.579 223.597 222.183C223.388 222.788 222.86 223.154 222.417 223.001L210.848 223.124C210.405 222.971 210.214 222.357 210.423 221.753C210.632 221.149 211.16 220.783 211.603 220.936L212.323 221.3L211.119 217.36L210.697 216.966C210.494 216.777 210.337 216.545 210.238 216.287C210.138 216.029 210.098 215.752 210.12 215.476C210.142 215.201 210.227 214.933 210.367 214.695C210.507 214.456 210.7 214.253 210.93 214.099L211.28 202.662L211.45 197.82L211.099 192.327L209.477 167.62L203.335 198.003L197.062 230.913C197.208 231.045 197.318 231.213 197.381 231.399C197.444 231.586 197.458 231.786 197.422 231.98C197.364 232.25 197.214 232.492 196.997 232.664C196.781 232.836 196.511 232.928 196.234 232.923H187.718C187.54 232.922 187.364 232.881 187.204 232.802C187.044 232.722 186.904 232.607 186.796 232.465C186.688 232.323 186.614 232.158 186.58 231.982C186.547 231.807 186.554 231.626 186.601 231.454C186.673 231.207 186.824 230.99 187.032 230.837C187.239 230.684 187.491 230.603 187.749 230.607Z" fill="#2F2E41"/>
<path d="M195.322 70.9465C195.321 72.7004 195.751 74.4276 196.574 75.9765C197.397 77.5254 198.587 78.8487 200.041 79.8302C201.494 80.8117 203.166 81.4214 204.91 81.6058C206.655 81.7901 208.417 81.5435 210.044 80.8876C211.67 80.2316 213.111 79.1864 214.24 77.8437C215.368 76.501 216.149 74.9019 216.515 73.1866C216.881 71.4714 216.821 69.6925 216.339 68.0062C215.857 66.3198 214.968 64.7776 213.751 63.5148L213.7 63.4634C213.614 63.3734 213.528 63.2834 213.438 63.1976L213.437 63.1973L213.435 63.1964L213.434 63.195L213.434 63.1933C213.311 63.1036 213.198 63.0017 213.095 62.8891C211.649 60.8679 210.009 59.173 206.037 60.2319C200.318 61.7562 195.322 65.0277 195.322 70.9465Z" fill="#2F2E41"/>
<path d="M254.18 66.3597C254.204 66.9329 254.102 67.5045 253.882 68.0343C253.661 68.564 253.327 69.0389 252.904 69.4255C252.48 69.8122 251.976 70.1012 251.428 70.2722C250.881 70.4432 250.302 70.492 249.734 70.4153L222.101 93.0931L217.88 85.6746L246.369 65.7157C246.562 64.769 247.094 63.9258 247.867 63.3457C248.639 62.7657 249.598 62.4891 250.561 62.5685C251.523 62.6479 252.424 63.0777 253.091 63.7764C253.758 64.4751 254.145 65.3943 254.18 66.3597Z" fill="#FFB6B6"/>
<path d="M210.433 99.7811C210.433 99.7811 211.333 101.649 214.835 98.9958C217.637 96.8718 231.018 87.7078 233.991 83.8341C234.614 84.1159 235.314 84.1822 235.979 84.0225C236.645 83.8629 237.238 83.4864 237.666 82.9524L230.356 75.9137C228.062 76.0686 228.038 77.6037 228.235 78.4851L222.359 80.8198L207.057 89.6115L209.759 98.4425L210.433 99.7811Z" fill="#E6E6E6"/>
<path d="M208.676 82.4103C213.638 82.4103 217.661 78.3877 217.661 73.4256C217.661 68.4635 213.638 64.4409 208.676 64.4409C203.714 64.4409 199.692 68.4635 199.692 73.4256C199.692 78.3877 203.714 82.4103 208.676 82.4103Z" fill="#FFB7B7"/>
<path d="M220.933 117.991L221.025 112.979C221.39 112.479 224.447 108.108 223.762 103.741C223.441 101.686 222.325 99.9592 220.454 98.615L219.246 95.8036L217.458 91.6481L212.226 88.5336L211.501 87.0576L210.904 85.8321L203.687 85.1116L201.908 87.5057L201.873 87.5101C200.238 87.8816 198.702 88.6007 197.37 89.6186C195.907 90.7282 194.722 92.1616 193.906 93.8064C193.091 95.4511 192.668 97.2624 192.67 99.0982L192.714 104.923L192.722 105.758L192.727 106.566L197.229 118.686L197.401 119.156L199.167 123.904L198.863 124.405C198.537 124.95 198.417 125.594 198.524 126.22C198.631 126.846 198.959 127.413 199.448 127.818L199.659 130.788L200.041 130.682L202.215 130.076L218.662 125.486C219.281 125.313 219.828 124.944 220.221 124.436C220.235 124.417 220.248 124.398 220.261 124.379C220.326 124.298 220.383 124.211 220.432 124.119C220.805 123.175 220.845 122.92 220.849 122.657C221.395 122.035 221.711 121.244 221.743 120.417C221.775 119.59 221.521 118.777 221.025 118.114L220.933 117.991Z" fill="#E6E6E6"/>
<path d="M199.274 75.781C199.355 75.7681 199.436 75.751 199.518 75.7381C200.919 75.4895 202.321 75.2453 203.718 74.9924L203.847 71.8251L205.539 74.6623C209.401 75.9438 213.014 75.2195 216.413 73.6209C217.534 73.0887 218.622 72.489 219.67 71.8251C220.015 66.4687 217.85 63.0395 213.82 63.3991C213.673 63.4123 213.567 63.262 213.438 63.1976L213.437 63.1973L213.435 63.1964L213.434 63.195L213.434 63.1934C213.215 63.0905 212.993 62.9919 212.77 62.9019C211.025 62.2201 209.122 62.0474 207.283 62.404C205.444 62.7606 203.744 63.6317 202.381 64.9163C199.638 67.535 198.404 71.8594 199.274 75.781Z" fill="#2F2E41"/>
<path d="M205.127 60.4902C205.038 60.7998 204.86 61.0766 204.616 61.2871C204.372 61.4977 204.072 61.6329 203.752 61.6763C202.544 63.1698 201.161 64.7512 199.267 65.0499C198.726 65.1647 198.162 65.0672 197.69 64.7776C197.633 64.7414 197.58 64.6986 197.532 64.6502C197.084 64.2241 197.049 63.3675 197.581 63.0468C195.2 63.9913 193.807 66.561 193.456 69.0957C193.104 71.6303 193.592 74.1912 193.913 76.7303C194.233 79.2693 194.374 81.9357 193.377 84.2946C192.199 87.0752 189.494 89.0739 186.542 89.7109C186.278 89.768 186.014 89.8163 185.747 89.8471C185.568 88.6413 185.121 87.4912 184.437 86.4822C184.618 87.65 184.511 88.8443 184.126 89.9613C181.906 89.9305 179.726 89.3671 177.769 88.3184C175.094 86.9083 172.867 84.7558 171.044 82.3442C174.185 84.5713 178.525 85.406 181.942 83.6445C185 82.0631 186.805 78.7421 187.596 75.3949C188.387 72.0432 185.063 67.9368 185.423 64.5148C185.788 61.0928 189.915 58.1884 192.173 55.5923C193.614 53.9362 195.74 52.7106 197.932 52.9171C198.672 52.9876 199.389 53.2169 200.032 53.5893C200.676 53.9616 201.232 54.4683 201.662 55.0749C202.092 55.6814 202.387 56.3735 202.525 57.1041C202.664 57.8347 202.644 58.5866 202.465 59.3086C203.089 58.4256 204.701 58.6189 205.101 59.6249C205.208 59.9019 205.218 60.2072 205.127 60.4902Z" fill="#2F2E41"/>
<path d="M199.518 75.7381C199.518 75.7381 202.179 65.8035 213.588 63.5105C213.601 63.5063 213.644 63.4891 213.7 63.4634C213.734 63.442 213.777 63.4205 213.82 63.3991C213.691 63.3262 213.567 63.262 213.438 63.1976L213.437 63.1973L213.435 63.1964L213.434 63.195L213.434 63.1934C213.323 63.0905 213.211 62.9876 213.095 62.8891L212.77 62.9019C212.77 62.9019 201.322 61.089 199.518 75.7381Z" fill="#FD6584"/>
<path d="M228.151 123.081C228.049 122.822 227.877 122.597 227.656 122.429C227.434 122.261 227.171 122.157 226.894 122.129C226.34 122.081 225.782 122.162 225.264 122.365C223.232 123.042 221.408 124.228 219.964 125.811L219.989 126.817C219.311 127.681 218.949 128.751 218.964 129.85C218.978 130.948 219.368 132.008 220.068 132.855C220.463 133.342 221.003 133.691 221.609 133.853C221.912 133.928 222.23 133.92 222.529 133.83C222.828 133.74 223.097 133.571 223.308 133.34C223.915 132.601 223.621 131.487 223.175 130.64C222.396 129.168 221.255 127.917 219.86 127.006C222.189 126.947 224.477 126.378 226.563 125.34C227.025 125.138 227.442 124.845 227.789 124.479C227.96 124.295 228.083 124.07 228.147 123.826C228.21 123.582 228.211 123.326 228.151 123.081Z" fill="#2F2E41"/>
<path d="M254.338 61.6917C254.251 61.1094 254.883 60.6945 255.119 60.1553C255.271 59.6742 255.271 59.158 255.119 58.6769C254.982 58.0233 254.825 57.33 254.352 56.859C253.868 56.4526 253.273 56.2029 252.644 56.1429C251.115 55.8761 249.555 55.8485 248.018 56.0611L249.184 56.132C248.449 56.0852 247.713 56.1707 247.009 56.3844C246.658 56.4952 246.34 56.6925 246.085 56.958C245.831 57.2235 245.646 57.5487 245.55 57.9039C245.406 58.6236 245.898 59.4665 246.629 59.5281C246.264 59.4537 245.884 59.5269 245.573 59.7317C245.261 59.9364 245.044 60.2562 244.967 60.6209C244.891 60.9857 244.962 61.3659 245.165 61.6785C245.368 61.991 245.686 62.2105 246.051 62.289C245.882 62.7438 245.382 62.9616 244.953 63.1884C244.525 63.4153 244.074 63.8044 244.146 64.2839C244.242 64.9178 245.089 65.0481 245.73 65.0201L252.703 64.7159C253.303 64.7373 253.9 64.6134 254.442 64.3547C254.959 64.0532 255.32 63.3925 255.081 62.8438C254.896 62.4199 254.406 62.1489 254.338 61.6917Z" fill="#3F3D56"/>
<path d="M173.463 123.799C172.504 128.01 172.049 132.783 174.605 136.551C175.692 138.167 177.286 139.375 179.136 139.983C181.009 140.539 182.984 140.66 184.91 140.338C189.27 139.734 193.145 137.463 197.432 136.581C199.325 136.192 201.333 136.064 203.154 136.812C204.519 137.374 205.956 138.502 205.963 140.111C205.97 141.763 204.535 142.86 203.107 143.368C201.203 144.046 199.224 143.783 197.248 143.698C195.121 143.606 192.952 143.798 191.184 145.101C189.664 146.287 188.498 147.868 187.814 149.671C186.925 151.827 186.565 154.145 185.997 156.394C185.489 158.417 184.771 160.38 183.854 162.253C182.055 165.924 179.532 169.193 176.438 171.865C174.913 173.178 173.059 174.516 170.975 174.636C169.367 174.729 167.414 174.054 166.794 172.426C166.564 171.723 166.586 170.962 166.858 170.274C167.129 169.585 167.632 169.014 168.28 168.657C169.658 167.962 171.158 168.954 171.603 170.315C171.719 170.628 171.76 170.965 171.722 171.298C171.683 171.63 171.567 171.949 171.382 172.228C170.964 172.851 171.97 173.433 172.385 172.814C173.348 171.378 172.845 169.446 171.665 168.295C171.089 167.709 170.32 167.351 169.5 167.29C168.681 167.229 167.867 167.469 167.211 167.963C166.529 168.483 166.014 169.189 165.728 169.997C165.442 170.805 165.399 171.678 165.602 172.511C166.098 174.299 167.855 175.436 169.61 175.718C171.776 176.066 173.862 175.215 175.611 173.984C177.366 172.718 178.962 171.244 180.363 169.594C183.213 166.317 185.356 162.486 186.656 158.342C187.935 154.244 188.028 148.829 191.829 146.061C193.785 144.637 196.181 144.795 198.474 144.926C200.498 145.041 202.472 145.02 204.329 144.104C205.863 143.347 207.1 141.951 207.125 140.171C207.151 138.375 205.876 136.931 204.373 136.113C200.404 133.951 195.637 135.694 191.737 137.139C187.816 138.591 183.338 140.296 179.17 138.767C177.247 138.02 175.698 136.54 174.864 134.653C173.855 132.512 173.711 130.084 173.944 127.761C174.082 126.532 174.295 125.311 174.583 124.108C174.749 123.38 173.629 123.069 173.463 123.799Z" fill="#3F3D56"/>
<path d="M192.708 147.229C192.352 146.78 192.098 146.258 191.964 145.7C191.831 145.142 191.822 144.561 191.937 143.999C192.052 143.437 192.289 142.907 192.632 142.447C192.974 141.986 193.413 141.606 193.918 141.334L188.011 123.847L192.835 105.316L200.612 108.832L195.813 122.81L199.403 143.155C199.805 144.034 199.87 145.029 199.586 145.953C199.303 146.876 198.691 147.664 197.865 148.166C197.04 148.668 196.059 148.85 195.109 148.677C194.158 148.505 193.304 147.99 192.708 147.229Z" fill="#FFB6B6"/>
<path d="M199.827 90.0474C199.827 90.0474 198.001 89.0665 196.73 93.2717C195.713 96.6382 188.792 114.917 188.667 119.798C187.997 119.937 187.392 120.295 186.948 120.815C186.504 121.336 186.245 121.99 186.213 122.673L196.266 124.064C198.03 122.59 197.146 121.334 196.468 120.737L199.892 114.938L207.048 99.2811L201.16 90.733L199.827 90.0474Z" fill="#E6E6E6"/>
<path d="M180.586 111.654C179.436 115.491 177.704 119.128 175.449 122.438C174.891 123.252 174.305 124.044 173.691 124.816C173.213 123.948 172.634 123.14 171.967 122.407C169.624 119.831 166.482 118.146 163.434 116.457C160.385 114.769 157.29 112.956 155.137 110.217C154.17 108.985 153.478 107.56 153.107 106.038C152.619 103.973 152.805 101.82 154.01 100.096C155.76 97.5898 159.25 96.7066 162.217 97.4309C165.188 98.1553 167.675 100.22 169.604 102.59C168.973 99.6776 172.044 96.8654 175.015 97.1211C177.986 97.3806 180.369 99.9758 181.159 102.85C181.953 105.72 181.438 108.796 180.586 111.654Z" fill="#EB3122"/>
<path d="M175.254 166.258C174.539 168.644 173.462 170.906 172.06 172.964C171.713 173.47 171.349 173.963 170.967 174.443C170.67 173.903 170.31 173.4 169.895 172.945C168.438 171.343 166.484 170.295 164.589 169.245C162.693 168.195 160.769 167.068 159.429 165.365C158.828 164.598 158.398 163.712 158.167 162.766C157.864 161.482 157.979 160.143 158.729 159.071C159.817 157.513 161.987 156.964 163.832 157.414C165.68 157.865 167.226 159.148 168.426 160.622C168.033 158.811 169.943 157.062 171.79 157.221C173.638 157.383 175.119 158.997 175.61 160.784C176.104 162.569 175.784 164.481 175.254 166.258Z" fill="#EB3122"/>
<path d="M238.016 5.41961C236.442 5.67665 234.936 6.25085 233.59 7.10739C232.245 7.96392 231.087 9.08491 230.188 10.4023C229.277 11.7626 228.67 13.3034 228.408 14.9197C228.146 16.536 228.237 18.1897 228.672 19.768C229.162 21.5981 230.092 23.2806 231.381 24.6688C231.891 25.2174 232.712 24.3943 232.202 23.8471C231.187 22.7333 230.42 21.4167 229.951 19.9844C229.482 18.5521 229.323 17.0366 229.483 15.5381C229.655 14.0979 230.132 12.7109 230.882 11.4693C231.632 10.2278 232.638 9.16002 233.832 8.33711C235.171 7.39892 236.708 6.78382 238.325 6.54014C239.062 6.42919 238.748 5.30929 238.016 5.41961Z" fill="#3F3D56"/>
<g opacity="0.2">
<path d="M277.876 23.7504C277.346 24.3911 276.764 24.9871 276.136 25.5322C266.387 33.9841 258.466 43.2494 252.59 53.0687L250.471 56.6091L250.327 56.8531C249.828 56.4771 249.393 56.0233 249.038 55.509C247.682 53.5374 247.674 50.946 248.007 48.5755C249.015 41.4676 252.631 34.9889 258.152 30.4002C263.673 25.8115 270.703 23.4411 277.876 23.7504Z" fill="black"/>
</g>
<g opacity="0.2">
<path d="M175.449 122.772C174.891 123.585 174.305 124.378 173.691 125.15C173.213 124.282 172.634 123.473 171.967 122.741C169.623 120.165 166.482 118.48 163.434 116.791C160.385 115.102 157.29 113.29 155.137 110.551C154.17 109.318 153.478 107.893 153.107 106.372C159.96 107.322 166.257 110.662 170.886 115.804C172.74 117.891 174.277 120.239 175.449 122.772Z" fill="black"/>
<path d="M172.06 173.172C171.713 173.677 171.349 174.17 170.967 174.65C170.669 174.111 170.31 173.608 169.895 173.152C168.437 171.551 166.484 170.503 164.589 169.453C162.693 168.403 160.769 167.275 159.429 165.572C158.828 164.806 158.398 163.92 158.167 162.974C162.428 163.564 166.344 165.642 169.223 168.839C170.375 170.136 171.331 171.596 172.06 173.172Z" fill="black"/>
</g>
<path d="M249.723 56.7679C250.579 56.7679 251.273 56.0742 251.273 55.2185C251.273 54.3628 250.579 53.6691 249.723 53.6691C248.868 53.6691 248.174 54.3628 248.174 55.2185C248.174 56.0742 248.868 56.7679 249.723 56.7679Z" fill="#3F3D56"/>
</g>
<defs>
<clipPath id="clip0_110_396">
<rect width="247" height="252.728" fill="white" transform="translate(81 0.371033)"/>
</clipPath>
</defs>
</svg>
